<?xml version="1.0" encoding="UTF-8" standalone="no"?>
<!-- Created with Inkscape (http://www.inkscape.org/) -->

<svg
   version="1.1"
   id="svg1"
   width="499.83615"
   height="175.60306"
   viewBox="0 0 499.83615 175.60306"
   sodipodi:docname="Introduction to the theory of computation_third edition - Michael Sipser.pdf"
   xmlns:inkscape="http://www.inkscape.org/namespaces/inkscape"
   xmlns:sodipodi="http://sodipodi.sourceforge.net/DTD/sodipodi-0.dtd"
   xmlns="http://www.w3.org/2000/svg"
   xmlns:svg="http://www.w3.org/2000/svg">
  <defs
     id="defs1">
    <clipPath
       clipPathUnits="userSpaceOnUse"
       id="clipPath246">
      <path
         d="M 0,0 H 525 V 732 H 0 Z"
         id="path246" />
    </clipPath>
    <clipPath
       clipPathUnits="userSpaceOnUse"
       id="clipPath247">
      <path
         d="M 0,0 H 525 V 732 H 0 Z"
         id="path247" />
    </clipPath>
    <clipPath
       clipPathUnits="userSpaceOnUse"
       id="clipPath248">
      <path
         d="M 0,0 H 525 V 732 H 0 Z"
         id="path248" />
    </clipPath>
    <clipPath
       clipPathUnits="userSpaceOnUse"
       id="clipPath249">
      <path
         d="M 0,0 H 525 V 732 H 0 Z"
         transform="matrix(9.9989999,0,0,9.9989999,-1860.7509,-4156.2163)"
         id="path249" />
    </clipPath>
    <clipPath
       clipPathUnits="userSpaceOnUse"
       id="clipPath254">
      <path
         d="M 133.3974,442.39 V 154.5182 h 259.973 V 442.39"
         transform="matrix(1.3333333,0,0,-1.3333333,0,976)"
         id="path254" />
    </clipPath>
    <clipPath
       clipPathUnits="userSpaceOnUse"
       id="clipPath256">
      <path
         d="M 133.3974,442.39 V 154.5182 h 259.973 V 442.39"
         id="path256" />
    </clipPath>
    <clipPath
       clipPathUnits="userSpaceOnUse"
       id="clipPath258">
      <path
         d="M 133.3974,442.39 V 154.5182 h 259.973 V 442.39"
         transform="matrix(9.9989999,0,0,9.9989999,-1631.2209,-4286.4872)"
         id="path258" />
    </clipPath>
    <clipPath
       clipPathUnits="userSpaceOnUse"
       id="clipPath260">
      <path
         d="M 133.3974,442.39 V 154.5182 h 259.973 V 442.39"
         id="path260" />
    </clipPath>
    <clipPath
       clipPathUnits="userSpaceOnUse"
       id="clipPath262">
      <path
         d="M 133.3974,442.39 V 154.5182 h 259.973 V 442.39"
         id="path262" />
    </clipPath>
    <clipPath
       clipPathUnits="userSpaceOnUse"
       id="clipPath264">
      <path
         d="M 133.3974,442.39 V 154.5182 h 259.973 V 442.39"
         id="path264" />
    </clipPath>
    <clipPath
       clipPathUnits="userSpaceOnUse"
       id="clipPath266">
      <path
         d="M 133.3974,442.39 V 154.5182 h 259.973 V 442.39"
         id="path266" />
    </clipPath>
    <clipPath
       clipPathUnits="userSpaceOnUse"
       id="clipPath268">
      <path
         d="M 133.3974,442.39 V 154.5182 h 259.973 V 442.39"
         id="path268" />
    </clipPath>
    <clipPath
       clipPathUnits="userSpaceOnUse"
       id="clipPath270">
      <path
         d="M 133.3974,442.39 V 154.5182 h 259.973 V 442.39"
         id="path270" />
    </clipPath>
    <clipPath
       clipPathUnits="userSpaceOnUse"
       id="clipPath272">
      <path
         d="M 133.3974,442.39 V 154.5182 h 259.973 V 442.39"
         transform="matrix(9.9989999,0,0,9.9989999,-3578.3201,-3584.1365)"
         id="path272" />
    </clipPath>
    <clipPath
       clipPathUnits="userSpaceOnUse"
       id="clipPath274">
      <path
         d="M 133.3974,442.39 V 154.5182 h 259.973 V 442.39"
         id="path274" />
    </clipPath>
    <clipPath
       clipPathUnits="userSpaceOnUse"
       id="clipPath276">
      <path
         d="M 133.3974,442.39 V 154.5182 h 259.973 V 442.39"
         transform="matrix(9.9989999,0,0,9.9989999,434.95889,298.17243)"
         id="path276" />
    </clipPath>
    <clipPath
       clipPathUnits="userSpaceOnUse"
       id="clipPath278">
      <path
         d="M 133.3974,442.39 V 154.5182 h 259.973 V 442.39"
         id="path278" />
    </clipPath>
    <clipPath
       clipPathUnits="userSpaceOnUse"
       id="clipPath280">
      <path
         d="M 133.3974,442.39 V 154.5182 h 259.973 V 442.39"
         transform="matrix(9.9989999,0,0,9.9989999,-3449.1,-4290.7168)"
         id="path280" />
    </clipPath>
    <clipPath
       clipPathUnits="userSpaceOnUse"
       id="clipPath282">
      <path
         d="M 133.3974,442.39 V 154.5182 h 259.973 V 442.39"
         id="path282" />
    </clipPath>
    <clipPath
       clipPathUnits="userSpaceOnUse"
       id="clipPath284">
      <path
         d="M 133.3974,442.39 V 154.5182 h 259.973 V 442.39"
         transform="matrix(9.9989999,0,0,9.9989999,-3579.33,-4160.4869)"
         id="path284" />
    </clipPath>
    <clipPath
       clipPathUnits="userSpaceOnUse"
       id="clipPath286">
      <path
         d="M 133.3974,442.39 V 154.5182 h 259.973 V 442.39"
         id="path286" />
    </clipPath>
    <clipPath
       clipPathUnits="userSpaceOnUse"
       id="clipPath288">
      <path
         d="M 133.3974,442.39 V 154.5182 h 259.973 V 442.39"
         id="path288" />
    </clipPath>
    <clipPath
       clipPathUnits="userSpaceOnUse"
       id="clipPath290">
      <path
         d="M 133.3974,442.39 V 154.5182 h 259.973 V 442.39"
         id="path290" />
    </clipPath>
    <clipPath
       clipPathUnits="userSpaceOnUse"
       id="clipPath292">
      <path
         d="M 133.3974,442.39 V 154.5182 h 259.973 V 442.39"
         id="path292" />
    </clipPath>
    <clipPath
       clipPathUnits="userSpaceOnUse"
       id="clipPath294">
      <path
         d="M 133.3974,442.39 V 154.5182 h 259.973 V 442.39"
         id="path294" />
    </clipPath>
    <clipPath
       clipPathUnits="userSpaceOnUse"
       id="clipPath296">
      <path
         d="M 133.3974,442.39 V 154.5182 h 259.973 V 442.39"
         id="path296" />
    </clipPath>
    <clipPath
       clipPathUnits="userSpaceOnUse"
       id="clipPath298">
      <path
         d="M 133.3974,442.39 V 154.5182 h 259.973 V 442.39"
         id="path298" />
    </clipPath>
    <clipPath
       clipPathUnits="userSpaceOnUse"
       id="clipPath300">
      <path
         d="M 133.3974,442.39 V 154.5182 h 259.973 V 442.39"
         id="path300" />
    </clipPath>
    <clipPath
       clipPathUnits="userSpaceOnUse"
       id="clipPath302">
      <path
         d="M 133.3974,442.39 V 154.5182 h 259.973 V 442.39"
         transform="matrix(9.9989999,0,0,9.9989999,-2919.74,-3582.9466)"
         id="path302" />
    </clipPath>
    <clipPath
       clipPathUnits="userSpaceOnUse"
       id="clipPath304">
      <path
         d="M 133.3974,442.39 V 154.5182 h 259.973 V 442.39"
         id="path304" />
    </clipPath>
    <clipPath
       clipPathUnits="userSpaceOnUse"
       id="clipPath306">
      <path
         d="M 133.3974,442.39 V 154.5182 h 259.973 V 442.39"
         transform="matrix(9.9989999,0,0,9.9989999,-2959.16,-3582.1267)"
         id="path306" />
    </clipPath>
    <clipPath
       clipPathUnits="userSpaceOnUse"
       id="clipPath308">
      <path
         d="M 133.3974,442.39 V 154.5182 h 259.973 V 442.39"
         id="path308" />
    </clipPath>
    <clipPath
       clipPathUnits="userSpaceOnUse"
       id="clipPath310">
      <path
         d="M 133.3974,442.39 V 154.5182 h 259.973 V 442.39"
         id="path310" />
    </clipPath>
    <clipPath
       clipPathUnits="userSpaceOnUse"
       id="clipPath312">
      <path
         d="M 133.3974,442.39 V 154.5182 h 259.973 V 442.39"
         transform="matrix(9.9989999,0,0,9.9989999,-2924.0805,-4287.9871)"
         id="path312" />
    </clipPath>
    <clipPath
       clipPathUnits="userSpaceOnUse"
       id="clipPath314">
      <path
         d="M 133.3974,442.39 V 154.5182 h 259.973 V 442.39"
         id="path314" />
    </clipPath>
    <clipPath
       clipPathUnits="userSpaceOnUse"
       id="clipPath316">
      <path
         d="M 133.3974,442.39 V 154.5182 h 259.973 V 442.39"
         transform="matrix(9.9989999,0,0,9.9989999,-3184.5505,-4287.9871)"
         id="path316" />
    </clipPath>
    <clipPath
       clipPathUnits="userSpaceOnUse"
       id="clipPath318">
      <path
         d="M 133.3974,442.39 V 154.5182 h 259.973 V 442.39"
         id="path318" />
    </clipPath>
    <clipPath
       clipPathUnits="userSpaceOnUse"
       id="clipPath320">
      <path
         d="M 133.3974,442.39 V 154.5182 h 259.973 V 442.39"
         transform="matrix(9.9989999,0,0,9.9989999,-3449.1,-3582.0067)"
         id="path320" />
    </clipPath>
    <clipPath
       clipPathUnits="userSpaceOnUse"
       id="clipPath322">
      <path
         d="M 133.3974,442.39 V 154.5182 h 259.973 V 442.39"
         id="path322" />
    </clipPath>
    <clipPath
       clipPathUnits="userSpaceOnUse"
       id="clipPath324">
      <path
         d="M 133.3974,442.39 V 154.5182 h 259.973 V 442.39"
         id="path324" />
    </clipPath>
    <clipPath
       clipPathUnits="userSpaceOnUse"
       id="clipPath326">
      <path
         d="M 133.3974,442.39 V 154.5182 h 259.973 V 442.39"
         id="path326" />
    </clipPath>
    <clipPath
       clipPathUnits="userSpaceOnUse"
       id="clipPath328">
      <path
         d="M 133.3974,442.39 V 154.5182 h 259.973 V 442.39"
         id="path328" />
    </clipPath>
    <clipPath
       clipPathUnits="userSpaceOnUse"
       id="clipPath330">
      <path
         d="M 133.3974,442.39 V 154.5182 h 259.973 V 442.39"
         id="path330" />
    </clipPath>
    <clipPath
       clipPathUnits="userSpaceOnUse"
       id="clipPath332">
      <path
         d="M 133.3974,442.39 V 154.5182 h 259.973 V 442.39"
         id="path332" />
    </clipPath>
    <clipPath
       clipPathUnits="userSpaceOnUse"
       id="clipPath334">
      <path
         d="M 133.3974,442.39 V 154.5182 h 259.973 V 442.39"
         transform="matrix(9.9989999,0,0,9.9989999,-2828.5901,-4287.5561)"
         id="path334" />
    </clipPath>
    <clipPath
       clipPathUnits="userSpaceOnUse"
       id="clipPath336">
      <path
         d="M 133.3974,442.39 V 154.5182 h 259.973 V 442.39"
         id="path336" />
    </clipPath>
    <clipPath
       clipPathUnits="userSpaceOnUse"
       id="clipPath338">
      <path
         d="M 133.3974,442.39 V 154.5182 h 259.973 V 442.39"
         id="path338" />
    </clipPath>
    <clipPath
       clipPathUnits="userSpaceOnUse"
       id="clipPath340">
      <path
         d="M 133.3974,442.39 V 154.5182 h 259.973 V 442.39"
         id="path340" />
    </clipPath>
    <clipPath
       clipPathUnits="userSpaceOnUse"
       id="clipPath342">
      <path
         d="M 133.3974,442.39 V 154.5182 h 259.973 V 442.39"
         id="path342" />
    </clipPath>
    <clipPath
       clipPathUnits="userSpaceOnUse"
       id="clipPath344">
      <path
         d="M 133.3974,442.39 V 154.5182 h 259.973 V 442.39"
         id="path344" />
    </clipPath>
    <clipPath
       clipPathUnits="userSpaceOnUse"
       id="clipPath346">
      <path
         d="M 133.3974,442.39 V 154.5182 h 259.973 V 442.39"
         id="path346" />
    </clipPath>
    <clipPath
       clipPathUnits="userSpaceOnUse"
       id="clipPath348">
      <path
         d="M 133.3974,442.39 V 154.5182 h 259.973 V 442.39"
         id="path348" />
    </clipPath>
    <clipPath
       clipPathUnits="userSpaceOnUse"
       id="clipPath350">
      <path
         d="M 133.3974,442.39 V 154.5182 h 259.973 V 442.39"
         id="path350" />
    </clipPath>
    <clipPath
       clipPathUnits="userSpaceOnUse"
       id="clipPath352">
      <path
         d="M 133.3974,442.39 V 154.5182 h 259.973 V 442.39"
         transform="matrix(9.9989999,0,0,9.9989999,-1976.9802,-4364.2565)"
         id="path352" />
    </clipPath>
    <clipPath
       clipPathUnits="userSpaceOnUse"
       id="clipPath354">
      <path
         d="M 133.3974,442.39 V 154.5182 h 259.973 V 442.39"
         id="path354" />
    </clipPath>
    <clipPath
       clipPathUnits="userSpaceOnUse"
       id="clipPath356">
      <path
         d="M 133.3974,442.39 V 154.5182 h 259.973 V 442.39"
         id="path356" />
    </clipPath>
    <clipPath
       clipPathUnits="userSpaceOnUse"
       id="clipPath358">
      <path
         d="M 133.3974,442.39 V 154.5182 h 259.973 V 442.39"
         transform="matrix(9.9989999,0,0,9.9989999,-1730.5209,-4286.4563)"
         id="path358" />
    </clipPath>
    <clipPath
       clipPathUnits="userSpaceOnUse"
       id="clipPath360">
      <path
         d="M 133.3974,442.39 V 154.5182 h 259.973 V 442.39"
         id="path360" />
    </clipPath>
    <clipPath
       clipPathUnits="userSpaceOnUse"
       id="clipPath362">
      <path
         d="M 133.3974,442.39 V 154.5182 h 259.973 V 442.39"
         id="path362" />
    </clipPath>
    <clipPath
       clipPathUnits="userSpaceOnUse"
       id="clipPath364">
      <path
         d="M 133.3974,442.39 V 154.5182 h 259.973 V 442.39"
         transform="matrix(9.9989999,0,0,9.9989999,-1976.9802,-3658.0071)"
         id="path364" />
    </clipPath>
    <clipPath
       clipPathUnits="userSpaceOnUse"
       id="clipPath366">
      <path
         d="M 133.3974,442.39 V 154.5182 h 259.973 V 442.39"
         id="path366" />
    </clipPath>
    <clipPath
       clipPathUnits="userSpaceOnUse"
       id="clipPath368">
      <path
         d="M 133.3974,442.39 V 154.5182 h 259.973 V 442.39"
         id="path368" />
    </clipPath>
    <clipPath
       clipPathUnits="userSpaceOnUse"
       id="clipPath370">
      <path
         d="M 133.3974,442.39 V 154.5182 h 259.973 V 442.39"
         transform="matrix(9.9989999,0,0,9.9989999,-1732.8007,-3579.487)"
         id="path370" />
    </clipPath>
    <clipPath
       clipPathUnits="userSpaceOnUse"
       id="clipPath372">
      <path
         d="M 133.3974,442.39 V 154.5182 h 259.973 V 442.39"
         id="path372" />
    </clipPath>
    <clipPath
       clipPathUnits="userSpaceOnUse"
       id="clipPath374">
      <path
         d="M 133.3974,442.39 V 154.5182 h 259.973 V 442.39"
         transform="matrix(9.9989999,0,0,9.9989999,-1774.1105,-3580.6368)"
         id="path374" />
    </clipPath>
    <clipPath
       clipPathUnits="userSpaceOnUse"
       id="clipPath376">
      <path
         d="M 133.3974,442.39 V 154.5182 h 259.973 V 442.39"
         id="path376" />
    </clipPath>
    <clipPath
       clipPathUnits="userSpaceOnUse"
       id="clipPath378">
      <path
         d="M 133.3974,442.39 V 154.5182 h 259.973 V 442.39"
         id="path378" />
    </clipPath>
    <clipPath
       clipPathUnits="userSpaceOnUse"
       id="clipPath380">
      <path
         d="M 133.3974,442.39 V 154.5182 h 259.973 V 442.39"
         transform="matrix(9.9989999,0,0,9.9989999,434.95889,298.17243)"
         id="path380" />
    </clipPath>
    <clipPath
       clipPathUnits="userSpaceOnUse"
       id="clipPath382">
      <path
         d="M 133.3974,442.39 V 154.5182 h 259.973 V 442.39"
         id="path382" />
    </clipPath>
    <clipPath
       clipPathUnits="userSpaceOnUse"
       id="clipPath384">
      <path
         d="M 133.3974,442.39 V 154.5182 h 259.973 V 442.39"
         id="path384" />
    </clipPath>
    <clipPath
       clipPathUnits="userSpaceOnUse"
       id="clipPath386">
      <path
         d="M 133.3974,442.39 V 154.5182 h 259.973 V 442.39"
         transform="matrix(9.9989999,0,0,9.9989999,-3451.3808,-3583.7565)"
         id="path386" />
    </clipPath>
    <clipPath
       clipPathUnits="userSpaceOnUse"
       id="clipPath388">
      <path
         d="M 133.3974,442.39 V 154.5182 h 259.973 V 442.39"
         id="path388" />
    </clipPath>
    <clipPath
       clipPathUnits="userSpaceOnUse"
       id="clipPath390">
      <path
         d="M 133.3974,442.39 V 154.5182 h 259.973 V 442.39"
         id="path390" />
    </clipPath>
    <clipPath
       clipPathUnits="userSpaceOnUse"
       id="clipPath392">
      <path
         d="M 133.3974,442.39 V 154.5182 h 259.973 V 442.39"
         transform="matrix(9.9989999,0,0,9.9989999,-3201.2908,-2703.9365)"
         id="path392" />
    </clipPath>
    <clipPath
       clipPathUnits="userSpaceOnUse"
       id="clipPath394">
      <path
         d="M 133.3974,442.39 V 154.5182 h 259.973 V 442.39"
         id="path394" />
    </clipPath>
    <clipPath
       clipPathUnits="userSpaceOnUse"
       id="clipPath396">
      <path
         d="M 133.3974,442.39 V 154.5182 h 259.973 V 442.39"
         transform="matrix(9.9989999,0,0,9.9989999,-3202.6507,-1867.3372)"
         id="path396" />
    </clipPath>
    <clipPath
       clipPathUnits="userSpaceOnUse"
       id="clipPath398">
      <path
         d="M 133.3974,442.39 V 154.5182 h 259.973 V 442.39"
         id="path398" />
    </clipPath>
    <clipPath
       clipPathUnits="userSpaceOnUse"
       id="clipPath400">
      <path
         d="M 133.3974,442.39 V 154.5182 h 259.973 V 442.39"
         transform="matrix(9.9989999,0,0,9.9989999,-3242.0707,-1866.5173)"
         id="path400" />
    </clipPath>
    <clipPath
       clipPathUnits="userSpaceOnUse"
       id="clipPath402">
      <path
         d="M 133.3974,442.39 V 154.5182 h 259.973 V 442.39"
         id="path402" />
    </clipPath>
    <clipPath
       clipPathUnits="userSpaceOnUse"
       id="clipPath404">
      <path
         d="M 133.3974,442.39 V 154.5182 h 259.973 V 442.39"
         id="path404" />
    </clipPath>
    <clipPath
       clipPathUnits="userSpaceOnUse"
       id="clipPath406">
      <path
         d="M 133.3974,442.39 V 154.5182 h 259.973 V 442.39"
         id="path406" />
    </clipPath>
    <clipPath
       clipPathUnits="userSpaceOnUse"
       id="clipPath408">
      <path
         d="M 133.3974,442.39 V 154.5182 h 259.973 V 442.39"
         id="path408" />
    </clipPath>
    <clipPath
       clipPathUnits="userSpaceOnUse"
       id="clipPath410">
      <path
         d="M 133.3974,442.39 V 154.5182 h 259.973 V 442.39"
         id="path410" />
    </clipPath>
    <clipPath
       clipPathUnits="userSpaceOnUse"
       id="clipPath412">
      <path
         d="M 133.3974,442.39 V 154.5182 h 259.973 V 442.39"
         id="path412" />
    </clipPath>
    <clipPath
       clipPathUnits="userSpaceOnUse"
       id="clipPath414">
      <path
         d="M 133.3974,442.39 V 154.5182 h 259.973 V 442.39"
         id="path414" />
    </clipPath>
    <clipPath
       clipPathUnits="userSpaceOnUse"
       id="clipPath416">
      <path
         d="M 133.3974,442.39 V 154.5182 h 259.973 V 442.39"
         id="path416" />
    </clipPath>
    <clipPath
       clipPathUnits="userSpaceOnUse"
       id="clipPath418">
      <path
         d="M 133.3974,442.39 V 154.5182 h 259.973 V 442.39"
         id="path418" />
    </clipPath>
    <clipPath
       clipPathUnits="userSpaceOnUse"
       id="clipPath420">
      <path
         d="M 133.3974,442.39 V 154.5182 h 259.973 V 442.39"
         id="path420" />
    </clipPath>
    <clipPath
       clipPathUnits="userSpaceOnUse"
       id="clipPath422">
      <path
         d="M 133.3974,442.39 V 154.5182 h 259.973 V 442.39"
         id="path422" />
    </clipPath>
    <clipPath
       clipPathUnits="userSpaceOnUse"
       id="clipPath424">
      <path
         d="M 133.3974,442.39 V 154.5182 h 259.973 V 442.39"
         transform="matrix(9.9989999,0,0,9.9989999,-3331.5208,-2571.2068)"
         id="path424" />
    </clipPath>
    <clipPath
       clipPathUnits="userSpaceOnUse"
       id="clipPath426">
      <path
         d="M 133.3974,442.39 V 154.5182 h 259.973 V 442.39"
         id="path426" />
    </clipPath>
    <clipPath
       clipPathUnits="userSpaceOnUse"
       id="clipPath428">
      <path
         d="M 133.3974,442.39 V 154.5182 h 259.973 V 442.39"
         transform="matrix(9.9989999,0,0,9.9989999,-3093.8105,-2703.2966)"
         id="path428" />
    </clipPath>
    <clipPath
       clipPathUnits="userSpaceOnUse"
       id="clipPath430">
      <path
         d="M 133.3974,442.39 V 154.5182 h 259.973 V 442.39"
         id="path430" />
    </clipPath>
    <clipPath
       clipPathUnits="userSpaceOnUse"
       id="clipPath432">
      <path
         d="M 133.3974,442.39 V 154.5182 h 259.973 V 442.39"
         id="path432" />
    </clipPath>
    <clipPath
       clipPathUnits="userSpaceOnUse"
       id="clipPath434">
      <path
         d="M 133.3974,442.39 V 154.5182 h 259.973 V 442.39"
         transform="matrix(9.9989999,0,0,9.9989999,-1431.4208,-1871.9877)"
         id="path434" />
    </clipPath>
    <clipPath
       clipPathUnits="userSpaceOnUse"
       id="clipPath436">
      <path
         d="M 133.3974,442.39 V 154.5182 h 259.973 V 442.39"
         id="path436" />
    </clipPath>
    <clipPath
       clipPathUnits="userSpaceOnUse"
       id="clipPath438">
      <path
         d="M 133.3974,442.39 V 154.5182 h 259.973 V 442.39"
         transform="matrix(9.9989999,0,0,9.9989999,-1470.3909,-1870.6169)"
         id="path438" />
    </clipPath>
    <clipPath
       clipPathUnits="userSpaceOnUse"
       id="clipPath440">
      <path
         d="M 133.3974,442.39 V 154.5182 h 259.973 V 442.39"
         id="path440" />
    </clipPath>
    <clipPath
       clipPathUnits="userSpaceOnUse"
       id="clipPath442">
      <path
         d="M 133.3974,442.39 V 154.5182 h 259.973 V 442.39"
         transform="matrix(9.9989999,0,0,9.9989999,-1431.4208,-1871.9877)"
         id="path442" />
    </clipPath>
    <clipPath
       clipPathUnits="userSpaceOnUse"
       id="clipPath444">
      <path
         d="M 133.3974,442.39 V 154.5182 h 259.973 V 442.39"
         id="path444" />
    </clipPath>
    <clipPath
       clipPathUnits="userSpaceOnUse"
       id="clipPath446">
      <path
         d="M 133.3974,442.39 V 154.5182 h 259.973 V 442.39"
         transform="matrix(9.9989999,0,0,9.9989999,-1470.8409,-1871.1669)"
         id="path446" />
    </clipPath>
    <clipPath
       clipPathUnits="userSpaceOnUse"
       id="clipPath448">
      <path
         d="M 133.3974,442.39 V 154.5182 h 259.973 V 442.39"
         transform="matrix(9.9989999,0,0,9.9989999,-2151.3608,-2606.7573)"
         id="path448" />
    </clipPath>
    <clipPath
       clipPathUnits="userSpaceOnUse"
       id="clipPath450">
      <path
         d="M 133.3974,442.39 V 154.5182 h 259.973 V 442.39"
         id="path450" />
    </clipPath>
    <clipPath
       clipPathUnits="userSpaceOnUse"
       id="clipPath452">
      <path
         d="M 133.3974,442.39 V 154.5182 h 259.973 V 442.39"
         id="path452" />
    </clipPath>
    <clipPath
       clipPathUnits="userSpaceOnUse"
       id="clipPath454">
      <path
         d="M 133.3974,442.39 V 154.5182 h 259.973 V 442.39"
         id="path454" />
    </clipPath>
    <clipPath
       clipPathUnits="userSpaceOnUse"
       id="clipPath456">
      <path
         d="M 133.3974,442.39 V 154.5182 h 259.973 V 442.39"
         id="path456" />
    </clipPath>
    <clipPath
       clipPathUnits="userSpaceOnUse"
       id="clipPath458">
      <path
         d="M 133.3974,442.39 V 154.5182 h 259.973 V 442.39"
         id="path458" />
    </clipPath>
    <clipPath
       clipPathUnits="userSpaceOnUse"
       id="clipPath460">
      <path
         d="M 133.3974,442.39 V 154.5182 h 259.973 V 442.39"
         id="path460" />
    </clipPath>
    <clipPath
       clipPathUnits="userSpaceOnUse"
       id="clipPath462">
      <path
         d="M 133.3974,442.39 V 154.5182 h 259.973 V 442.39"
         id="path462" />
    </clipPath>
    <clipPath
       clipPathUnits="userSpaceOnUse"
       id="clipPath464">
      <path
         d="M 133.3974,442.39 V 154.5182 h 259.973 V 442.39"
         id="path464" />
    </clipPath>
    <clipPath
       clipPathUnits="userSpaceOnUse"
       id="clipPath466">
      <path
         d="M 133.3974,442.39 V 154.5182 h 259.973 V 442.39"
         id="path466" />
    </clipPath>
    <clipPath
       clipPathUnits="userSpaceOnUse"
       id="clipPath468">
      <path
         d="M 133.3974,442.39 V 154.5182 h 259.973 V 442.39"
         id="path468" />
    </clipPath>
    <clipPath
       clipPathUnits="userSpaceOnUse"
       id="clipPath470">
      <path
         d="M 133.3974,442.39 V 154.5182 h 259.973 V 442.39"
         transform="matrix(9.9989999,0,0,9.9989999,-1441.4208,-2711.9867)"
         id="path470" />
    </clipPath>
    <clipPath
       clipPathUnits="userSpaceOnUse"
       id="clipPath472">
      <path
         d="M 133.3974,442.39 V 154.5182 h 259.973 V 442.39"
         id="path472" />
    </clipPath>
    <clipPath
       clipPathUnits="userSpaceOnUse"
       id="clipPath474">
      <path
         d="M 133.3974,442.39 V 154.5182 h 259.973 V 442.39"
         transform="matrix(9.9989999,0,0,9.9989999,-1701.8908,-2711.9867)"
         id="path474" />
    </clipPath>
    <clipPath
       clipPathUnits="userSpaceOnUse"
       id="clipPath476">
      <path
         d="M 133.3974,442.39 V 154.5182 h 259.973 V 442.39"
         id="path476" />
    </clipPath>
    <clipPath
       clipPathUnits="userSpaceOnUse"
       id="clipPath478">
      <path
         d="M 133.3974,442.39 V 154.5182 h 259.973 V 442.39"
         id="path478" />
    </clipPath>
    <clipPath
       clipPathUnits="userSpaceOnUse"
       id="clipPath480">
      <path
         d="M 133.3974,442.39 V 154.5182 h 259.973 V 442.39"
         id="path480" />
    </clipPath>
    <clipPath
       clipPathUnits="userSpaceOnUse"
       id="clipPath482">
      <path
         d="M 133.3974,442.39 V 154.5182 h 259.973 V 442.39"
         transform="matrix(9.9989999,0,0,9.9989999,-1333.8606,-2710.5069)"
         id="path482" />
    </clipPath>
    <clipPath
       clipPathUnits="userSpaceOnUse"
       id="clipPath484">
      <path
         d="M 133.3974,442.39 V 154.5182 h 259.973 V 442.39"
         id="path484" />
    </clipPath>
    <clipPath
       clipPathUnits="userSpaceOnUse"
       id="clipPath486">
      <path
         d="M 133.3974,442.39 V 154.5182 h 259.973 V 442.39"
         transform="matrix(9.9989999,0,0,9.9989999,-2215.6004,-2713.3566)"
         id="path486" />
    </clipPath>
    <clipPath
       clipPathUnits="userSpaceOnUse"
       id="clipPath488">
      <path
         d="M 133.3974,442.39 V 154.5182 h 259.973 V 442.39"
         id="path488" />
    </clipPath>
    <clipPath
       clipPathUnits="userSpaceOnUse"
       id="clipPath490">
      <path
         d="M 133.3974,442.39 V 154.5182 h 259.973 V 442.39"
         id="path490" />
    </clipPath>
    <clipPath
       clipPathUnits="userSpaceOnUse"
       id="clipPath492">
      <path
         d="M 133.3974,442.39 V 154.5182 h 259.973 V 442.39"
         transform="matrix(9.9989999,0,0,9.9989999,-2090.0209,-2711.9867)"
         id="path492" />
    </clipPath>
    <clipPath
       clipPathUnits="userSpaceOnUse"
       id="clipPath494">
      <path
         d="M 133.3974,442.39 V 154.5182 h 259.973 V 442.39"
         id="path494" />
    </clipPath>
    <clipPath
       clipPathUnits="userSpaceOnUse"
       id="clipPath496">
      <path
         d="M 133.3974,442.39 V 154.5182 h 259.973 V 442.39"
         id="path496" />
    </clipPath>
  </defs>
  <sodipodi:namedview
     id="namedview1"
     pagecolor="#ffffff"
     bordercolor="#000000"
     borderopacity="0.25"
     inkscape:showpageshadow="2"
     inkscape:pageopacity="0.0"
     inkscape:pagecheckerboard="0"
     inkscape:deskcolor="#d1d1d1">
    <inkscape:page
       x="0"
       y="0"
       width="499.83615"
       height="175.60306"
       id="page2"
       margin="0"
       bleed="0" />
  </sodipodi:namedview>
  <g
     id="g1"
     inkscape:groupmode="layer"
     inkscape:label="99"
     transform="translate(-63.501952,-377.52676)">
    <g
       id="g253"
       clip-path="url(#clipPath254)"
       transform="translate(-154.01388,-4.4003964)">
      <path
         d="m 184.2835,320.6837 c 0,-0.099 -0.049,-0.159 -0.17,-0.159 -0.089,0 -0.2501,0.189 -0.7091,0.6091 -0.08,0.071 -1.8002,1.6702 -1.8002,4.0714 0,2.4002 1.7202,4.0004 1.8002,4.0704 0.459,0.42 0.6201,0.6091 0.7091,0.6091 0.121,0 0.17,-0.059 0.17,-0.1601 0,-0.08 -1.8702,-1.4601 -1.8702,-4.5194 0,-3.0613 1.8702,-4.4415 1.8702,-4.5215"
         style="fill:#000000;fill-opacity:1;fill-rule:nonzero;stroke:none"
         transform="matrix(1.3333333,0,0,-1.3333333,0,976)"
         clip-path="url(#clipPath246)"
         id="path250" />
      <path
         d="m 186.9938,324.6441 c 0,0.0511 -0.03,0.1011 -0.0691,0.1011 -0.051,0 -0.791,-0.3301 -0.991,-0.4911 -0.2791,-0.21 -0.3301,-0.36 -0.3301,-0.7291 0,-0.311 0.131,-0.62 0.4711,-0.62 0.379,0 0.9191,0.349 0.9191,0.529 z m 0.81,-1.4791 c 0,-0.161 0.07,-0.201 0.1701,-0.201 0.201,0 0.351,0.231 0.431,0.231 0.049,0 0.129,-0.07 0.129,-0.11 0,-0.121 -0.6501,-0.6001 -1.0001,-0.6001 -0.359,0 -0.44,0.2291 -0.549,0.5801 -0.5911,-0.4601 -0.8711,-0.5801 -1.2912,-0.5801 -0.7801,0 -0.9591,0.5691 -0.9591,0.8901 0,0.5091 0.2991,0.9291 2.2593,1.6602 v 0.9101 c 0,0.519 -0.6001,0.7901 -0.8391,0.7901 -0.2301,0 -0.7111,-0.3601 -0.7111,-0.4601 0,-0.141 0.131,-0.28 0.131,-0.5 0,-0.1101 -0.09,-0.3811 -0.491,-0.3811 -0.3401,0 -0.4201,0.261 -0.4201,0.3701 0,0.271 0.071,0.401 0.8211,0.901 0.7501,0.4901 0.8591,0.5001 1.0791,0.5001 0.32,0 1.2401,-0.241 1.2401,-1.1511 v -2.8493"
         style="fill:#000000;fill-opacity:1;fill-rule:nonzero;stroke:none"
         transform="matrix(1.3333333,0,0,-1.3333333,0,976)"
         clip-path="url(#clipPath247)"
         id="path251" />
      <path
         d="m 188.7639,329.7247 c 0,0.101 0.05,0.16 0.1701,0.16 0.09,0 0.25,-0.1891 0.71,-0.6091 0.08,-0.07 1.8002,-1.6702 1.8002,-4.0704 0,-2.4012 -1.7202,-4.0004 -1.8002,-4.0714 -0.46,-0.42 -0.62,-0.6091 -0.71,-0.6091 -0.1201,0 -0.1701,0.06 -0.1701,0.159 0,0.0801 1.8702,1.4602 1.8702,4.5215 0,3.0593 -1.8702,4.4394 -1.8702,4.5195"
         style="fill:#000000;fill-opacity:1;fill-rule:nonzero;stroke:none"
         transform="matrix(1.3333333,0,0,-1.3333333,0,976)"
         clip-path="url(#clipPath248)"
         id="path252" />
      <path
         d="m 0,0 0.61,-411.96 m -1.62,-164.39 c 0,36.89 55.33,66.79 123.59,66.79 68.27,0 123.6,-29.9 123.6,-66.79 0,-36.88 -55.33,-66.78 -123.6,-66.78 -68.26,0 -123.59,29.9 -123.59,66.78 z m 1.89,702.27 c 0,36.88 55.33,66.78 123.6,66.78 68.26,0 123.6,-29.9 123.6,-66.78 0,-36.88 -55.34,-66.78 -123.6,-66.78 -68.27,0 -123.6,29.9 -123.6,66.78 z"
         style="fill:none;stroke:#000000;stroke-width:5;stroke-linecap:butt;stroke-linejoin:miter;stroke-miterlimit:3.864;stroke-dasharray:none;stroke-opacity:1"
         transform="matrix(0.13334667,0,0,-0.13334667,248.12493,421.7824)"
         clip-path="url(#clipPath249)"
         id="path253" />
    </g>
    <path
       id="path255"
       d="m 186.1547,374.4631 1.7501,1.1661 -1.7501,-4.6664 -1.7502,4.6664 1.7502,-1.1661"
       style="fill:#000000;fill-opacity:1;fill-rule:evenodd;stroke:none"
       transform="matrix(1.3333333,0,0,-1.3333333,-154.01388,971.5996)"
       clip-path="url(#clipPath256)" />
    <path
       id="path257"
       d="M 0,0 61.55,0.38"
       style="fill:none;stroke:#000000;stroke-width:5;stroke-linecap:butt;stroke-linejoin:miter;stroke-miterlimit:3.864;stroke-dasharray:none;stroke-opacity:1"
       transform="matrix(0.13334667,0,0,-0.13334667,63.503995,400.0108)"
       clip-path="url(#clipPath258)" />
    <path
       id="path259"
       d="m 169.294,428.7295 -1.1661,1.7502 4.6665,-1.7502 -4.6665,-1.7501 1.1661,1.7501"
       style="fill:#000000;fill-opacity:1;fill-rule:evenodd;stroke:none"
       transform="matrix(1.3333333,0,0,-1.3333333,-154.01388,971.5996)"
       clip-path="url(#clipPath260)" />
    <path
       id="path261"
       d="m 213.0384,436.1283 c -1.1172,-0.009 -2.0253,-0.315 -2.0253,-0.7561 0,-0.36 0.3691,-0.6571 0.9001,-0.6571 0.035,0 0.4401,0 0.7641,0.1541 0.3611,0.179 0.3611,0.369 0.3611,0.575 z m 0.666,-1.3041 c 0.17,-0.064 0.3591,-0.064 0.4941,-0.064 0.145,0 0.387,0 0.387,-0.2881 0,-0.297 -0.215,-0.297 -0.467,-0.297 -0.2971,0 -0.7841,0 -1.0001,0.306 -0.4861,-0.351 -1.1702,-0.351 -1.2772,-0.351 -0.8731,0 -1.4951,0.558 -1.4951,1.2421 0,0.8821 1.1881,1.3051 2.6923,1.3231 0,0.5491 -0.4151,0.8461 -1.1252,0.8461 -0.082,0 -0.244,0 -0.496,-0.027 0,-0.432 -0.279,-0.485 -0.4221,-0.485 -0.216,0 -0.415,0.161 -0.415,0.422 0,0.6751 0.9091,0.6751 1.3241,0.6751 1.2592,0 1.8002,-0.7021 1.8002,-1.4042 v -1.8981"
       style="fill:#000000;fill-opacity:1;fill-rule:nonzero;stroke:none"
       transform="matrix(1.3333333,0,0,-1.3333333,-154.01388,971.5996)"
       clip-path="url(#clipPath262)" />
    <path
       id="path263"
       d="m 207.2528,368.9876 c -1.1161,-0.008 -2.0252,-0.3151 -2.0252,-0.7551 0,-0.361 0.369,-0.6581 0.9001,-0.6581 0.036,0 0.441,0 0.765,0.1541 0.3601,0.179 0.3601,0.369 0.3601,0.575 z m 0.6661,-1.3042 c 0.171,-0.064 0.36,-0.064 0.495,-0.064 0.144,0 0.387,0 0.387,-0.288 0,-0.297 -0.216,-0.297 -0.468,-0.297 -0.297,0 -0.7831,0 -0.9991,0.306 -0.4861,-0.351 -1.1701,-0.351 -1.2781,-0.351 -0.8731,0 -1.4942,0.558 -1.4942,1.2431 0,0.8821 1.1881,1.3041 2.6913,1.3221 0,0.5501 -0.4141,0.8471 -1.1251,0.8471 -0.081,0 -0.2431,0 -0.4951,-0.028 0,-0.431 -0.279,-0.485 -0.423,-0.485 -0.215,0 -0.4141,0.161 -0.4141,0.423 0,0.6741 0.9091,0.6741 1.3242,0.6741 1.2591,0 1.7992,-0.7021 1.7992,-1.4042 v -1.8982"
       style="fill:#000000;fill-opacity:1;fill-rule:nonzero;stroke:none"
       transform="matrix(1.3333333,0,0,-1.3333333,-154.01388,971.5996)"
       clip-path="url(#clipPath264)" />
    <path
       id="path265"
       d="m 211.1772,367.0344 c -0.3321,0 -0.5761,0.244 -0.5761,0.576 0,0.2971 0.226,0.5671 0.5761,0.5671 0.423,0 0.756,-0.387 0.756,-0.9081 0,-1.0091 -0.9271,-1.4861 -1.2151,-1.4861 -0.171,0 -0.305,0.163 -0.305,0.297 0,0.198 0.162,0.252 0.242,0.28 0.4591,0.152 0.6211,0.4951 0.6661,0.6921 -0.017,-0.009 -0.08,-0.018 -0.144,-0.018"
       style="fill:#000000;fill-opacity:1;fill-rule:nonzero;stroke:none"
       transform="matrix(1.3333333,0,0,-1.3333333,-154.01388,971.5996)"
       clip-path="url(#clipPath266)" />
    <path
       id="path267"
       d="m 215.0476,368.7726 c 0,-0.4691 0.351,-1.1982 0.9901,-1.1982 0.657,0 1.2421,0.6031 1.2421,1.4052 0,0.7821 -0.5311,1.3941 -1.1521,1.3941 -0.5491,0 -1.0801,-0.44 -1.0801,-0.9721 z m 0,1.7721 c 0.315,0.2621 0.693,0.4141 1.1161,0.4141 1.0081,0 1.7821,-0.9091 1.7821,-1.9792 0,-1.1351 -0.873,-1.9902 -1.8721,-1.9902 -0.3961,0 -0.7471,0.162 -1.0261,0.432 0,-0.18 0,-0.387 -0.3331,-0.387 -0.333,0 -0.333,0.207 -0.333,0.387 v 4.5275 h -0.3961 c -0.135,0 -0.378,0 -0.378,0.297 0,0.288 0.252,0.288 0.378,0.288 h 0.6841 c 0.306,0 0.3781,-0.081 0.3781,-0.378 v -1.6112"
       style="fill:#000000;fill-opacity:1;fill-rule:nonzero;stroke:none"
       transform="matrix(1.3333333,0,0,-1.3333333,-154.01388,971.5996)"
       clip-path="url(#clipPath268)" />
    <path
       id="path269"
       d="m 189.809,396.7234 c 0,-0.4691 0.3501,-1.1972 0.9901,-1.1972 0.6571,0 1.2422,0.6021 1.2422,1.4042 0,0.7821 -0.5321,1.3941 -1.1532,1.3941 -0.549,0 -1.0791,-0.44 -1.0791,-0.9711 z m 0,1.7721 c 0.3151,0.2621 0.6931,0.4151 1.1161,0.4151 1.0081,0 1.7822,-0.9101 1.7822,-1.9802 0,-1.1351 -0.8731,-1.9892 -1.8722,-1.9892 -0.396,0 -0.748,0.162 -1.0261,0.431 0,-0.179 0,-0.386 -0.333,-0.386 -0.333,0 -0.333,0.207 -0.333,0.386 v 4.5285 h -0.3961 c -0.135,0 -0.379,0 -0.379,0.297 0,0.288 0.253,0.288 0.379,0.288 h 0.6831 c 0.307,0 0.379,-0.081 0.379,-0.378 v -1.6122"
       style="fill:#000000;fill-opacity:1;fill-rule:nonzero;stroke:none"
       transform="matrix(1.3333333,0,0,-1.3333333,-154.01388,971.5996)"
       clip-path="url(#clipPath270)" />
    <path
       id="path271"
       d="M 0,0 C 0,36.89 55.33,66.78 123.59,66.78 191.87,66.78 247.2,36.89 247.2,0 247.2,-36.88 191.87,-66.78 123.59,-66.78 55.33,-66.78 0,-36.88 0,0 Z m 1.89,702.27 c 0,36.88 55.33,66.79 123.62,66.79 68.26,0 123.59,-29.91 123.59,-66.79 0,-36.88 -55.33,-66.78 -123.59,-66.78 -68.29,0 -123.62,29.9 -123.62,66.78 z"
       style="fill:none;stroke:#000000;stroke-width:5;stroke-linecap:butt;stroke-linejoin:miter;stroke-miterlimit:3.864;stroke-dasharray:none;stroke-opacity:1"
       transform="matrix(0.13334667,0,0,-0.13334667,256.25716,494.54701)"
       clip-path="url(#clipPath272)" />
    <path
       id="path273"
       d="m 368.673,434.5942 h 2.50025 v 1.75018 H 368.673 Z"
       style="fill:#ffffff;fill-opacity:1;fill-rule:nonzero;stroke:none"
       transform="matrix(1.3333333,0,0,-1.3333333,-220.89991,972.47968)"
       clip-path="url(#clipPath274)" />
    <path
       id="path275"
       d="m 4121.32,4643.68 h 25 v 17.5 h -25 z"
       style="fill:none;stroke:#ffffff;stroke-width:5;stroke-linecap:butt;stroke-linejoin:miter;stroke-miterlimit:3.864;stroke-dasharray:none;stroke-opacity:1"
       transform="matrix(0.13334667,0,0,-0.13334667,-278.90023,1012.24)"
       clip-path="url(#clipPath276)" />
    <path
       id="path277"
       d="m 344.9445,429.1146 c 0,7.1937 5.8326,13.0253 13.0243,13.0253 7.1948,0 13.0253,-5.8316 13.0253,-13.0253 0,-7.1927 -5.8305,-13.0243 -13.0253,-13.0243 -7.1917,0 -13.0243,5.8316 -13.0243,13.0243"
       style="fill:#f0f0f0;fill-opacity:1;fill-rule:nonzero;stroke:none"
       transform="matrix(1.3333333,0,0,-1.3333333,-220.89991,972.47968)"
       clip-path="url(#clipPath278)" />
    <path
       id="path279"
       d="m 0,0 c 0,71.93 58.32,130.24 130.23,130.24 71.94,0 130.24,-58.31 130.24,-130.24 0,-71.92 -58.3,-130.23 -130.24,-130.23 C 58.32,-130.23 0,-71.92 0,0 Z"
       style="fill:none;stroke:#000000;stroke-width:5;stroke-linecap:butt;stroke-linejoin:miter;stroke-miterlimit:3.864;stroke-dasharray:none;stroke-opacity:1"
       transform="matrix(0.13334667,0,0,-0.13334667,239.02609,400.32688)"
       clip-path="url(#clipPath280)" />
    <path
       id="path281"
       d="m 372.7983,435.2192 1.1061,-1.7902 -4.6044,1.9122 4.7255,1.5862 -1.2272,-1.7082"
       style="fill:#000000;fill-opacity:1;fill-rule:evenodd;stroke:none"
       transform="matrix(1.3333333,0,0,-1.3333333,-220.89991,972.47968)"
       clip-path="url(#clipPath282)" />
    <path
       id="path283"
       d="M 0,0 -0.47,-412.48"
       style="fill:none;stroke:#000000;stroke-width:5;stroke-linecap:butt;stroke-linejoin:miter;stroke-miterlimit:3.864;stroke-dasharray:none;stroke-opacity:1"
       transform="matrix(0.13334667,0,0,-0.13334667,256.39182,417.69261)"
       clip-path="url(#clipPath284)" />
    <path
       id="path285"
       d="m 357.9218,374.8382 1.7502,1.1661 -1.7502,-4.6665 -1.7501,4.6665 1.7501,-1.1661"
       style="fill:#000000;fill-opacity:1;fill-rule:evenodd;stroke:none"
       transform="matrix(1.3333333,0,0,-1.3333333,-220.89991,972.47968)"
       clip-path="url(#clipPath286)" />
    <path
       id="path287"
       d="m 358.8339,426.0913 c 0,-0.4321 0.036,-0.5761 1.0911,-0.5761 h 0.3721 v -0.348 c -0.3241,0.025 -1.4762,0.025 -1.8722,0.025 -0.395,0 -1.5592,0 -1.8832,-0.025 v 0.348 h 0.372 c 1.0551,0 1.0912,0.144 1.0912,0.5761 v 6.2526 c -0.6601,-0.311 -1.2592,-0.311 -1.5362,-0.311 v 0.347 c 1.2371,0 1.8362,0.4441 2.1242,0.7691 0.241,0 0.241,-0.013 0.241,-0.288 v -6.7697"
       style="fill:#000000;fill-opacity:1;fill-rule:nonzero;stroke:none"
       transform="matrix(1.3333333,0,0,-1.3333333,-220.89991,972.47968)"
       clip-path="url(#clipPath288)" />
    <path
       id="path289"
       d="m 384.9135,436.5553 c -1.1161,-0.009 -2.0262,-0.315 -2.0262,-0.756 0,-0.3601 0.3691,-0.6571 0.9011,-0.6571 0.036,0 0.4411,0 0.7651,0.153 0.36,0.18 0.36,0.369 0.36,0.5761 z m 0.6661,-1.3051 c 0.171,-0.063 0.359,-0.063 0.495,-0.063 0.1431,0 0.3871,0 0.3871,-0.288 0,-0.2971 -0.216,-0.2971 -0.4681,-0.2971 -0.297,0 -0.783,0 -0.9991,0.3061 -0.486,-0.3511 -1.1701,-0.3511 -1.2791,-0.3511 -0.8731,0 -1.4941,0.5581 -1.4941,1.2422 0,0.882 1.1891,1.3051 2.6922,1.3221 0,0.55 -0.414,0.8471 -1.1251,0.8471 -0.081,0 -0.243,0 -0.495,-0.027 0,-0.4321 -0.2791,-0.4861 -0.4231,-0.4861 -0.216,0 -0.414,0.162 -0.414,0.4231 0,0.675 0.9091,0.675 1.3231,0.675 1.2601,0 1.8002,-0.702 1.8002,-1.4041 v -1.8992"
       style="fill:#000000;fill-opacity:1;fill-rule:nonzero;stroke:none"
       transform="matrix(1.3333333,0,0,-1.3333333,-220.89991,972.47968)"
       clip-path="url(#clipPath290)" />
    <path
       id="path291"
       d="m 378.6999,371.3128 c -1.1161,-0.009 -2.0262,-0.316 -2.0262,-0.7561 0,-0.36 0.37,-0.657 0.9011,-0.657 0.036,0 0.441,0 0.7651,0.153 0.36,0.18 0.36,0.369 0.36,0.575 z m 0.6661,-1.3051 c 0.171,-0.063 0.359,-0.063 0.495,-0.063 0.144,0 0.3871,0 0.3871,-0.2891 0,-0.297 -0.2161,-0.297 -0.4681,-0.297 -0.297,0 -0.7831,0 -0.9991,0.306 -0.485,-0.35 -1.1701,-0.35 -1.2781,-0.35 -0.8731,0 -1.4952,0.5571 -1.4952,1.2421 0,0.8821 1.1892,1.3042 2.6923,1.3222 0,0.55 -0.414,0.847 -1.1251,0.847 -0.081,0 -0.243,0 -0.4951,-0.027 0,-0.432 -0.279,-0.486 -0.423,-0.486 -0.216,0 -0.414,0.161 -0.414,0.423 0,0.6751 0.9091,0.6751 1.3231,0.6751 1.2601,0 1.8002,-0.7021 1.8002,-1.4051 v -1.8982"
       style="fill:#000000;fill-opacity:1;fill-rule:nonzero;stroke:none"
       transform="matrix(1.3333333,0,0,-1.3333333,-220.89991,972.47968)"
       clip-path="url(#clipPath292)" />
    <path
       id="path293"
       d="m 387.0988,371.1148 c 0,-1.3051 -1.3142,-1.9542 -2.4943,-1.9542 -1.1791,0 -2.4922,0.6401 -2.4922,1.9542 v 3.3303 c 0,0.125 0,0.296 0.18,0.296 0.179,0 0.179,-0.171 0.179,-0.296 v -3.3033 c 0,-1.2061 1.2791,-1.6202 2.1332,-1.6202 0.8641,0 2.1332,0.4231 2.1332,1.6202 v 3.3033 c 0,0.125 0,0.296 0.181,0.296 0.1801,0 0.1801,-0.171 0.1801,-0.296 v -3.3303"
       style="fill:#000000;fill-opacity:1;fill-rule:nonzero;stroke:none"
       transform="matrix(1.3333333,0,0,-1.3333333,-220.89991,972.47968)"
       clip-path="url(#clipPath294)" />
    <path
       id="path295"
       d="m 390.4721,371.0968 c 0,-0.4691 0.35,-1.1971 0.9901,-1.1971 0.6571,0 1.2421,0.602 1.2421,1.4041 0,0.7821 -0.531,1.3952 -1.1531,1.3952 -0.548,0 -1.0791,-0.4411 -1.0791,-0.9721 z m 0,1.7722 c 0.315,0.262 0.6931,0.414 1.1161,0.414 1.0071,0 1.7822,-0.9091 1.7822,-1.9792 0,-1.1351 -0.8731,-1.9892 -1.8722,-1.9892 -0.397,0 -0.7471,0.162 -1.0261,0.4311 0,-0.1801 0,-0.3871 -0.334,-0.3871 -0.3321,0 -0.3321,0.207 -0.3321,0.3871 v 4.5284 h -0.396 c -0.135,0 -0.379,0 -0.379,0.296 0,0.2891 0.253,0.2891 0.379,0.2891 h 0.6831 c 0.307,0 0.379,-0.082 0.379,-0.3781 v -1.6121"
       style="fill:#000000;fill-opacity:1;fill-rule:nonzero;stroke:none"
       transform="matrix(1.3333333,0,0,-1.3333333,-220.89991,972.47968)"
       clip-path="url(#clipPath296)" />
    <path
       id="path297"
       d="m 361.6842,397.1504 c 0,-0.4691 0.3511,-1.1981 0.9901,-1.1981 0.6571,0 1.2431,0.603 1.2431,1.4051 0,0.7821 -0.532,1.3941 -1.1531,1.3941 -0.549,0 -1.0801,-0.44 -1.0801,-0.972 z m 0,1.7722 c 0.315,0.262 0.6941,0.414 1.1151,0.414 1.0091,0 1.7842,-0.9091 1.7842,-1.9792 0,-1.1351 -0.8731,-1.9902 -1.8732,-1.9902 -0.396,0 -0.7471,0.162 -1.0261,0.4321 0,-0.1801 0,-0.3871 -0.333,-0.3871 -0.333,0 -0.333,0.207 -0.333,0.3871 v 4.5274 h -0.3961 c -0.135,0 -0.378,0 -0.378,0.297 0,0.2881 0.253,0.2881 0.378,0.2881 h 0.6831 c 0.307,0 0.379,-0.081 0.379,-0.3781 v -1.6111"
       style="fill:#000000;fill-opacity:1;fill-rule:nonzero;stroke:none"
       transform="matrix(1.3333333,0,0,-1.3333333,-220.89991,972.47968)"
       clip-path="url(#clipPath298)" />
    <path
       id="path299"
       d="m 292.0032,358.3305 c 0,7.1927 5.8306,13.0243 13.0254,13.0243 7.1937,0 13.0243,-5.8316 13.0243,-13.0243 0,-7.1937 -5.8306,-13.0253 -13.0243,-13.0253 -7.1948,0 -13.0254,5.8316 -13.0254,13.0253"
       style="fill:#f0f0f0;fill-opacity:1;fill-rule:nonzero;stroke:none"
       transform="matrix(1.3333333,0,0,-1.3333333,-220.89991,972.47968)"
       clip-path="url(#clipPath300)" />
    <path
       id="path301"
       d="m 0,0 c 0,71.92 58.3,130.23 130.24,130.23 71.93,0 130.23,-58.31 130.23,-130.23 0,-71.93 -58.3,-130.24 -130.23,-130.24 C 58.3,-130.24 0,-71.93 0,0 Z"
       style="fill:none;stroke:#000000;stroke-width:5;stroke-linecap:butt;stroke-linejoin:miter;stroke-miterlimit:3.864;stroke-dasharray:none;stroke-opacity:1"
       transform="matrix(0.13334667,0,0,-0.13334667,168.43769,494.70568)"
       clip-path="url(#clipPath302)" />
    <path
       id="path303"
       d="m 295.9456,358.2485 c 0,5.1165 4.1485,9.2639 9.264,9.2639 5.1165,0 9.2649,-4.1474 9.2649,-9.2639 0,-5.1165 -4.1484,-9.2639 -9.2649,-9.2639 -5.1155,0 -9.264,4.1474 -9.264,9.2639"
       style="fill:#f0f0f0;fill-opacity:1;fill-rule:nonzero;stroke:none"
       transform="matrix(1.3333333,0,0,-1.3333333,-220.89991,972.47968)"
       clip-path="url(#clipPath304)" />
    <path
       id="path305"
       d="m 0,0 c 0,51.16 41.48,92.63 92.63,92.63 51.16,0 92.64,-41.47 92.64,-92.63 0,-51.16 -41.48,-92.63 -92.64,-92.63 C 41.48,-92.63 0,-51.16 0,0 Z"
       style="fill:none;stroke:#000000;stroke-width:5;stroke-linecap:butt;stroke-linejoin:miter;stroke-miterlimit:3.864;stroke-dasharray:none;stroke-opacity:1"
       transform="matrix(0.13334667,0,0,-0.13334667,173.69422,494.81501)"
       clip-path="url(#clipPath306)" />
    <path
       id="path307"
       d="m 306.3897,359.1486 c 0.012,0.037 0.024,0.133 0.024,0.157 0,0.072 -0.144,1.0921 -0.9361,1.0921 -0.5161,0 -1.0681,-0.516 -1.4161,-1.2491 -0.2751,-0.5631 -0.6241,-1.9192 -0.6241,-2.5313 0,-0.744 0.311,-1.1521 0.7691,-1.1521 0.707,0 1.4881,0.9121 1.5841,1.2841 z m 0.108,-2.5803 c -0.072,-0.275 -0.072,-0.443 -0.072,-0.539 0,-0.18 0.013,-0.5641 0.372,-0.5641 0.5161,0 0.7441,0.7921 0.9121,1.4642 0.036,0.18 0.048,0.24 0.168,0.24 0.073,0 0.1201,-0.036 0.1201,-0.108 0,-0.036 -0.1681,-0.7921 -0.3831,-1.2121 -0.181,-0.3481 -0.42,-0.6241 -0.8401,-0.6241 -0.529,0 -0.9611,0.336 -1.0451,0.9121 -0.516,-0.6001 -1.0441,-0.9121 -1.5601,-0.9121 -0.8161,0 -1.5122,0.6721 -1.5122,1.8842 0,1.7762 1.4532,3.5283 2.8203,3.5283 0.6601,0 0.9731,-0.54 1.0801,-0.804 0.036,0.264 0.168,0.576 0.4921,0.576 0.241,0 0.324,-0.18 0.324,-0.3 0,-0.036 -0.011,-0.096 -0.036,-0.168 l -0.8401,-3.3734"
       style="fill:#000000;fill-opacity:1;fill-rule:nonzero;stroke:none"
       transform="matrix(1.3333333,0,0,-1.3333333,-220.89991,972.47968)"
       clip-path="url(#clipPath308)" />
    <path
       id="path309"
       d="m 292.4373,428.8416 c 0,7.1937 5.8306,13.0243 13.0243,13.0243 7.1927,0 13.0253,-5.8306 13.0253,-13.0243 0,-7.1938 -5.8326,-13.0243 -13.0253,-13.0243 -7.1937,0 -13.0243,5.8305 -13.0243,13.0243"
       style="fill:#f0f0f0;fill-opacity:1;fill-rule:nonzero;stroke:none"
       transform="matrix(1.3333333,0,0,-1.3333333,-220.89991,972.47968)"
       clip-path="url(#clipPath310)" />
    <path
       id="path311"
       d="m 0,0 c 0,71.93 58.3,130.23 130.23,130.23 71.92,0 130.24,-58.3 130.24,-130.23 0,-71.93 -58.32,-130.23 -130.24,-130.23 C 58.3,-130.23 0,-71.93 0,0 Z"
       style="fill:none;stroke:#000000;stroke-width:5;stroke-linecap:butt;stroke-linejoin:miter;stroke-miterlimit:3.864;stroke-dasharray:none;stroke-opacity:1"
       transform="matrix(0.13334667,0,0,-0.13334667,169.01649,400.69088)"
       clip-path="url(#clipPath312)" />
    <path
       id="path313"
       d="m 306.2017,431.0328 c -1.1402,0 -1.3692,-0.8771 -1.3692,-1.1041 0,-0.5401 0.4571,-0.6361 1.1651,-0.7801 0.2631,-0.06 1.3082,-0.277 1.3082,-1.3211 0,-0.6231 -0.5161,-1.9672 -2.3653,-1.9672 -0.9721,0 -1.6801,0.444 -1.6801,1.1521 0,0.552 0.348,0.7441 0.612,0.7441 0.2641,0 0.4081,-0.1561 0.4081,-0.3851 0,-0.287 -0.2761,-0.647 -0.7191,-0.575 0.18,-0.5281 0.8521,-0.6961 1.3921,-0.6961 1.4032,0 1.7392,0.9601 1.7392,1.3551 0,0.6611 -0.6601,0.8051 -1.1641,0.9131 -0.4671,0.096 -1.3081,0.264 -1.3081,1.1761 0,0.4921 0.408,1.7282 1.9922,1.7282 0.8531,0 1.3921,-0.445 1.3921,-1.0201 0,-0.516 -0.324,-0.6361 -0.504,-0.6361 -0.1801,0 -0.3361,0.1201 -0.3361,0.3241 0,0.012 0,0.467 0.5531,0.467 -0.145,0.4691 -0.6721,0.6251 -1.1161,0.6251"
       style="fill:#000000;fill-opacity:1;fill-rule:nonzero;stroke:none"
       transform="matrix(1.3333333,0,0,-1.3333333,-220.89991,972.47968)"
       clip-path="url(#clipPath314)" />
    <path
       id="path315"
       d="M 0,0 230.56,0.02"
       style="fill:none;stroke:#000000;stroke-width:5;stroke-linecap:butt;stroke-linejoin:miter;stroke-miterlimit:3.864;stroke-dasharray:none;stroke-opacity:1"
       transform="matrix(0.13334667,0,0,-0.13334667,203.74929,400.69088)"
       clip-path="url(#clipPath316)" />
    <path
       id="path317"
       d="m 341.5452,428.8436 -1.1681,1.7501 4.6685,-1.7501 -4.6685,-1.7502 1.1681,1.7502"
       style="fill:#000000;fill-opacity:1;fill-rule:evenodd;stroke:none"
       transform="matrix(1.3333333,0,0,-1.3333333,-220.89991,972.47968)"
       clip-path="url(#clipPath318)" />
    <path
       id="path319"
       d="M 0,0 -233.99,-0.25"
       style="fill:none;stroke:#000000;stroke-width:5;stroke-linecap:butt;stroke-linejoin:miter;stroke-miterlimit:3.864;stroke-dasharray:none;stroke-opacity:1"
       transform="matrix(0.13334667,0,0,-0.13334667,239.02609,494.83101)"
       clip-path="url(#clipPath320)" />
    <path
       id="path321"
       d="m 321.5432,358.2115 1.1661,-1.7502 -4.6664,1.7502 4.6664,1.7502 -1.1661,-1.7502"
       style="fill:#000000;fill-opacity:1;fill-rule:evenodd;stroke:none"
       transform="matrix(1.3333333,0,0,-1.3333333,-220.89991,972.47968)"
       clip-path="url(#clipPath322)" />
    <path
       id="path323"
       d="m 330.4211,320.4657 c 0,-0.099 -0.048,-0.159 -0.17,-0.159 -0.089,0 -0.25,0.19 -0.7081,0.6101 -0.081,0.07 -1.8012,1.6691 -1.8012,4.0704 0,2.4002 1.7202,4.0004 1.8012,4.0704 0.4581,0.42 0.6191,0.6101 0.7081,0.6101 0.122,0 0.17,-0.0601 0.17,-0.1611 0,-0.08 -1.8692,-1.4601 -1.8692,-4.5194 0,-3.0613 1.8692,-4.4415 1.8692,-4.5215"
       style="fill:#000000;fill-opacity:1;fill-rule:nonzero;stroke:none"
       transform="matrix(1.3333333,0,0,-1.3333333,-220.89991,972.47968)"
       clip-path="url(#clipPath324)" />
    <path
       id="path325"
       d="m 332.1323,323.8571 c 0,-0.8301 0.31,-1.3302 1.1001,-1.3302 1.1001,0 1.2691,1.0901 1.2691,1.9702 0,0.7191 -0.109,2.1702 -1.3301,2.1702 -0.6391,0 -1.0391,-0.371 -1.0391,-0.991 z m 0,2.6402 c 0.36,0.3201 0.67,0.4691 1.2091,0.4691 0.9811,0 2.1112,-0.6301 2.1112,-2.3293 0,-1.7111 -1.2201,-2.3702 -2.1402,-2.3702 -0.7601,0 -1.2402,0.39 -1.5402,0.39 -0.261,0 -0.25,-0.29 -0.39,-0.29 -0.08,0 -0.08,0.08 -0.08,0.13 0,0.15 0.02,0.2701 0.02,0.5091 v 5.2215 c 0,0.8701 -0.029,0.9891 -0.5801,1.0401 -0.061,0.01 -0.09,0.05 -0.09,0.12 0,0.079 0.029,0.13 0.08,0.14 0.8111,0.14 1.2901,0.4301 1.3912,0.4301 0.039,0 0.058,-0.05 0.058,-0.11 0,-0.04 -0.049,-0.14 -0.049,-1.4402 v -1.9102"
       style="fill:#000000;fill-opacity:1;fill-rule:nonzero;stroke:none"
       transform="matrix(1.3333333,0,0,-1.3333333,-220.89991,972.47968)"
       clip-path="url(#clipPath326)" />
    <path
       id="path327"
       d="m 335.8336,329.5066 c 0,0.101 0.049,0.161 0.169,0.161 0.0901,0 0.2501,-0.19 0.7101,-0.61 0.081,-0.07 1.8012,-1.6702 1.8012,-4.0704 0,-2.4013 -1.7202,-4.0004 -1.8012,-4.0704 -0.46,-0.4201 -0.62,-0.6101 -0.7101,-0.6101 -0.12,0 -0.169,0.06 -0.169,0.159 0,0.08 1.8702,1.4602 1.8702,4.5215 0,3.0593 -1.8702,4.4394 -1.8702,4.5194"
       style="fill:#000000;fill-opacity:1;fill-rule:nonzero;stroke:none"
       transform="matrix(1.3333333,0,0,-1.3333333,-220.89991,972.47968)"
       clip-path="url(#clipPath328)" />
    <path
       id="path329"
       d="m 331.2242,432.5639 c 0.432,0 0.459,0.063 0.494,0.172 -0.125,0.045 -0.206,0.045 -0.368,0.045 -0.108,0 -0.4501,0 -0.7471,-0.126 0.261,-0.091 0.5141,-0.091 0.6211,-0.091 z m -1.4672,-0.8911 c 0,-0.593 0.8821,-0.593 1.4122,-0.593 1.2251,0 1.3601,0.188 1.5131,0.404 0.036,0.046 0.081,0.063 0.116,0.063 0.091,0 0.155,-0.072 0.155,-0.153 0,-0.162 -0.478,-0.9991 -1.9362,-0.9991 -1.1521,0 -1.7011,0.5041 -1.7011,1.1791 0,0.5491 0.387,0.9551 0.576,1.0981 -0.045,0.064 -0.18,0.2521 -0.18,0.5231 0,0.6381 0.7291,1.5021 2.2862,1.5021 0.6661,0 1.3502,-0.332 1.3502,-0.63 0,-0.18 -0.188,-0.3961 -0.4051,-0.3961 -0.09,0 -0.135,0.036 -0.261,0.109 -0.35,0.2331 -0.6471,0.2331 -0.8471,0.2331 -1.1871,0 -1.7011,-0.3781 -1.7011,-0.8101 0,-0.198 0.055,-0.261 0.11,-0.324 0.476,0.225 0.9351,0.225 1.1321,0.225 0.29,0 0.7661,0 0.7661,-0.3681 0,-0.496 -0.6761,-0.496 -0.9181,-0.496 -0.153,0 -0.6571,0 -1.0261,0.198 -0.2791,-0.216 -0.4411,-0.522 -0.4411,-0.7651"
       style="fill:#000000;fill-opacity:1;fill-rule:nonzero;stroke:none"
       transform="matrix(1.3333333,0,0,-1.3333333,-220.89991,972.47968)"
       clip-path="url(#clipPath330)" />
    <path
       id="path331"
       d="m 330.9891,362.5259 c 0.4311,0 0.4591,0.064 0.4951,0.172 -0.127,0.0451 -0.207,0.0451 -0.369,0.0451 -0.1081,0 -0.4501,0 -0.7471,-0.1261 0.26,-0.091 0.512,-0.091 0.621,-0.091 z m -1.4681,-0.8901 c 0,-0.594 0.8831,-0.594 1.4141,-0.594 1.2242,0 1.3582,0.189 1.5122,0.404 0.035,0.046 0.081,0.064 0.117,0.064 0.09,0 0.152,-0.072 0.152,-0.153 0,-0.163 -0.476,-0.9991 -1.9342,-0.9991 -1.1531,0 -1.7011,0.5041 -1.7011,1.1791 0,0.5491 0.387,0.9541 0.576,1.0981 -0.045,0.063 -0.181,0.2521 -0.181,0.5221 0,0.6391 0.7301,1.5031 2.2872,1.5031 0.6661,0 1.3502,-0.333 1.3502,-0.63 0,-0.18 -0.1901,-0.3961 -0.4051,-0.3961 -0.09,0 -0.135,0.036 -0.261,0.1081 -0.352,0.234 -0.6491,0.234 -0.8461,0.234 -1.1881,0 -1.7012,-0.3781 -1.7012,-0.8101 0,-0.198 0.054,-0.261 0.107,-0.324 0.4781,0.225 0.9371,0.225 1.1352,0.225 0.287,0 0.765,0 0.765,-0.3691 0,-0.495 -0.675,-0.495 -0.9181,-0.495 -0.154,0 -0.657,0 -1.0271,0.198 -0.279,-0.216 -0.441,-0.522 -0.441,-0.7651"
       style="fill:#000000;fill-opacity:1;fill-rule:nonzero;stroke:none"
       transform="matrix(1.3333333,0,0,-1.3333333,-220.89991,972.47968)"
       clip-path="url(#clipPath332)" />
    <path
       id="path333"
       d="M 0,0 61.56,0.39"
       style="fill:none;stroke:#000000;stroke-width:5;stroke-linecap:butt;stroke-linejoin:miter;stroke-miterlimit:3.864;stroke-dasharray:none;stroke-opacity:1"
       transform="matrix(0.13334667,0,0,-0.13334667,156.28316,400.74835)"
       clip-path="url(#clipPath334)" />
    <path
       id="path335"
       d="m 289.044,428.8376 -1.1662,1.7501 4.6665,-1.7501 -4.6665,-1.7502 1.1662,1.7502"
       style="fill:#000000;fill-opacity:1;fill-rule:evenodd;stroke:none"
       transform="matrix(1.3333333,0,0,-1.3333333,-220.89991,972.47968)"
       clip-path="url(#clipPath336)" />
    <path
       id="path337"
       d="m 184.2835,154.6802 c 0,-0.1 -0.049,-0.159 -0.17,-0.159 -0.089,0 -0.2501,0.189 -0.7091,0.609 -0.08,0.0701 -1.8002,1.6702 -1.8002,4.0705 0,2.4012 1.7202,4.0004 1.8002,4.0714 0.459,0.42 0.6201,0.609 0.7091,0.609 0.121,0 0.17,-0.06 0.17,-0.16 0,-0.08 -1.8702,-1.4601 -1.8702,-4.5204 0,-3.0604 1.8702,-4.4405 1.8702,-4.5205"
       style="fill:#000000;fill-opacity:1;fill-rule:nonzero;stroke:none"
       transform="matrix(1.3333333,0,0,-1.3333333,144.33301,756.86026)"
       clip-path="url(#clipPath338)" />
    <path
       id="path339"
       d="m 188.2439,157.4605 c 0.081,0.07 0.12,0.16 0.17,0.16 0.03,0 0.15,-0.07 0.15,-0.139 0,-0.04 -0.02,-0.091 -0.079,-0.151 -0.511,-0.5801 -1.0911,-0.8491 -1.7502,-0.8491 -1.1601,0 -2.0712,0.8301 -2.0712,2.2592 0,1.4802 0.9801,2.3802 2.2703,2.3802 1.3701,0 1.6301,-0.74 1.6301,-0.9501 0,-0.12 -0.159,-0.43 -0.53,-0.43 -0.3201,0 -0.3591,0.1 -0.4701,0.6501 -0.03,0.15 -0.1,0.471 -0.62,0.471 -0.6301,0 -1.4102,-0.481 -1.4102,-2.1212 0,-0.45 0.17,-1.7002 1.7012,-1.7002 0.369,0 0.8091,0.2501 1.0091,0.4201"
       style="fill:#000000;fill-opacity:1;fill-rule:nonzero;stroke:none"
       transform="matrix(1.3333333,0,0,-1.3333333,144.33301,756.86026)"
       clip-path="url(#clipPath340)" />
    <path
       id="path341"
       d="m 188.7639,163.7211 c 0,0.1 0.05,0.16 0.1701,0.16 0.09,0 0.25,-0.189 0.71,-0.609 0.08,-0.0711 1.8002,-1.6702 1.8002,-4.0715 0,-2.4002 -1.7202,-4.0004 -1.8002,-4.0704 -0.46,-0.42 -0.62,-0.609 -0.71,-0.609 -0.1201,0 -0.1701,0.059 -0.1701,0.159 0,0.08 1.8702,1.4601 1.8702,4.5204 0,3.0604 -1.8702,4.4405 -1.8702,4.5205"
       style="fill:#000000;fill-opacity:1;fill-rule:nonzero;stroke:none"
       transform="matrix(1.3333333,0,0,-1.3333333,144.33301,756.86026)"
       clip-path="url(#clipPath342)" />
    <path
       id="path343"
       d="m 330.2161,154.6772 c 0,-0.1 -0.049,-0.159 -0.17,-0.159 -0.0891,0 -0.2501,0.189 -0.7091,0.609 -0.08,0.07 -1.8002,1.6702 -1.8002,4.0704 0,2.4013 1.7202,4.0004 1.8002,4.0715 0.459,0.42 0.62,0.609 0.7091,0.609 0.121,0 0.17,-0.059 0.17,-0.16 0,-0.08 -1.8692,-1.4601 -1.8692,-4.5205 0,-3.0603 1.8692,-4.4404 1.8692,-4.5204"
       style="fill:#000000;fill-opacity:1;fill-rule:nonzero;stroke:none"
       transform="matrix(1.3333333,0,0,-1.3333333,101.20912,755.98018)"
       clip-path="url(#clipPath344)" />
    <path
       id="path345"
       d="m 333.9174,160.0377 c 0,0.2311 -0.09,0.8301 -1.0201,0.8301 -1.1401,0 -1.3701,-1.2301 -1.3701,-1.8492 0,-2.1602 1.1301,-2.1912 1.4101,-2.1912 0.4101,0 0.9801,0.21 0.9801,0.8701 z m 0,2.4013 c 0,0.8701 -0.031,0.9891 -0.58,1.0401 -0.06,0.009 -0.09,0.049 -0.09,0.12 0,0.079 0.03,0.13 0.08,0.139 0.8091,0.14 1.2901,0.4301 1.3891,0.4301 0.041,0 0.061,-0.0501 0.061,-0.1091 0,-0.04 -0.051,-0.141 -0.051,-1.4411 v -5.1505 c 0,-0.27 0,-0.4601 0.5311,-0.4601 0.03,0 0.08,-0.04 0.08,-0.109 0,-0.061 -0.02,-0.141 -0.07,-0.151 -0.9711,-0.2 -1.1411,-0.269 -1.2212,-0.269 -0.07,0 -0.109,0.029 -0.109,0.099 0,0.14 0.029,0.26 0.029,0.43 -0.389,-0.33 -0.859,-0.529 -1.3691,-0.529 -1.2501,0 -1.9402,0.9601 -1.9402,2.1392 0,1.6512 1.2001,2.5103 2.2192,2.5103 0.4111,0 0.5811,-0.0291 1.0411,-0.2201 v 1.5312"
       style="fill:#000000;fill-opacity:1;fill-rule:nonzero;stroke:none"
       transform="matrix(1.3333333,0,0,-1.3333333,101.20912,755.98018)"
       clip-path="url(#clipPath346)" />
    <path
       id="path347"
       d="m 335.6286,163.7181 c 0,0.101 0.049,0.16 0.17,0.16 0.09,0 0.25,-0.189 0.7091,-0.609 0.08,-0.071 1.8012,-1.6702 1.8012,-4.0714 0,-2.4003 -1.7212,-4.0004 -1.8012,-4.0705 -0.4591,-0.42 -0.6191,-0.609 -0.7091,-0.609 -0.121,0 -0.17,0.059 -0.17,0.159 0,0.08 1.8702,1.4601 1.8702,4.5205 0,3.0603 -1.8702,4.4404 -1.8702,4.5204"
       style="fill:#000000;fill-opacity:1;fill-rule:nonzero;stroke:none"
       transform="matrix(1.3333333,0,0,-1.3333333,101.20912,755.98018)"
       clip-path="url(#clipPath348)" />
    <path
       id="path349"
       d="m 197.7178,436.4693 v 0 c 0.7251,0 1.3132,-0.588 1.3132,-1.3131 0,-0.7251 -0.5881,-1.3121 -1.3132,-1.3121 -0.7241,0 -1.3121,0.587 -1.3121,1.3121 0,0.7251 0.588,1.3131 1.3121,1.3131"
       style="fill:#ffffff;fill-opacity:1;fill-rule:evenodd;stroke:none"
       transform="matrix(1.3333333,0,0,-1.3333333,-154.01388,971.5996)"
       clip-path="url(#clipPath350)" />
    <path
       id="path351"
       d="m 0,0 v 0 c 7.25,0 13.13,-5.88 13.13,-13.13 0,-7.25 -5.88,-13.12 -13.13,-13.12 -7.24,0 -13.12,5.87 -13.12,13.12 C -13.12,-5.88 -7.24,0 0,0 Z"
       style="fill:none;stroke:#ffffff;stroke-width:5;stroke-linecap:butt;stroke-linejoin:miter;stroke-miterlimit:3.864;stroke-dasharray:none;stroke-opacity:1"
       transform="matrix(0.13334667,0,0,-0.13334667,109.60985,389.64053)"
       clip-path="url(#clipPath352)" />
    <path
       id="path353"
       d="m 201.0312,434.8442 1.1041,-1.7902 -4.6025,1.9122 4.7255,1.5861 -1.2271,-1.7081"
       style="fill:#000000;fill-opacity:1;fill-rule:evenodd;stroke:none"
       transform="matrix(1.3333333,0,0,-1.3333333,-154.01388,971.5996)"
       clip-path="url(#clipPath354)" />
    <path
       id="path355"
       d="m 173.0694,428.6885 c 0,7.1928 5.8316,13.0243 13.0243,13.0243 7.1937,0 13.0253,-5.8315 13.0253,-13.0243 0,-7.1937 -5.8316,-13.0253 -13.0253,-13.0253 -7.1927,0 -13.0243,5.8316 -13.0243,13.0253"
       style="fill:#f0f0f0;fill-opacity:1;fill-rule:nonzero;stroke:none"
       transform="matrix(1.3333333,0,0,-1.3333333,-154.01388,971.5996)"
       clip-path="url(#clipPath356)" />
    <path
       id="path357"
       d="m 0,0 c 0,71.92 58.31,130.23 130.23,130.23 71.93,0 130.24,-58.31 130.24,-130.23 0,-71.93 -58.31,-130.24 -130.24,-130.24 C 58.31,-130.24 0,-71.93 0,0 Z"
       style="fill:none;stroke:#000000;stroke-width:5;stroke-linecap:butt;stroke-linejoin:miter;stroke-miterlimit:3.864;stroke-dasharray:none;stroke-opacity:1"
       transform="matrix(0.13334667,0,0,-0.13334667,76.745325,400.01493)"
       clip-path="url(#clipPath358)" />
    <path
       id="path359"
       d="m 186.9577,425.6642 c 0,-0.431 0.036,-0.576 1.0922,-0.576 h 0.372 v -0.3471 c -0.324,0.0241 -1.4762,0.0241 -1.8722,0.0241 -0.396,0 -1.5602,0 -1.8842,-0.0241 v 0.3471 h 0.3721 c 1.0561,0 1.0921,0.145 1.0921,0.576 v 6.2527 c -0.6601,-0.3111 -1.2602,-0.3111 -1.5362,-0.3111 v 0.3471 c 1.2361,0 1.8362,0.445 2.1242,0.769 0.24,0 0.24,-0.013 0.24,-0.288 v -6.7697"
       style="fill:#000000;fill-opacity:1;fill-rule:nonzero;stroke:none"
       transform="matrix(1.3333333,0,0,-1.3333333,-154.01388,971.5996)"
       clip-path="url(#clipPath360)" />
    <path
       id="path361"
       d="m 197.7178,365.8373 v 0 c 0.7251,0 1.3132,-0.5321 1.3132,-1.1882 0,-0.656 -0.5881,-1.1871 -1.3132,-1.1871 -0.724,0 -1.3121,0.5311 -1.3121,1.1871 0,0.6561 0.5881,1.1882 1.3121,1.1882"
       style="fill:#ffffff;fill-opacity:1;fill-rule:evenodd;stroke:none"
       transform="matrix(1.3333333,0,0,-1.3333333,-154.01388,971.5996)"
       clip-path="url(#clipPath362)" />
    <path
       id="path363"
       d="m 0,0 v 0 c 7.25,0 13.13,-5.32 13.13,-11.88 0,-6.56 -5.88,-11.87 -13.13,-11.87 -7.24,0 -13.12,5.31 -13.12,11.87 C -13.12,-5.32 -7.24,0 0,0 Z"
       style="fill:none;stroke:#ffffff;stroke-width:5;stroke-linecap:butt;stroke-linejoin:miter;stroke-miterlimit:3.864;stroke-dasharray:none;stroke-opacity:1"
       transform="matrix(0.13334667,0,0,-0.13334667,109.60985,483.81653)"
       clip-path="url(#clipPath364)" />
    <path
       id="path365"
       d="m 200.8021,364.6241 1.0741,-1.8081 -4.5694,1.9922 4.7525,1.5031 -1.2572,-1.6872"
       style="fill:#000000;fill-opacity:1;fill-rule:evenodd;stroke:none"
       transform="matrix(1.3333333,0,0,-1.3333333,-154.01388,971.5996)"
       clip-path="url(#clipPath366)" />
    <path
       id="path367"
       d="m 173.2974,357.9845 c 0,7.1937 5.8306,13.0243 13.0233,13.0243 7.1938,0 13.0253,-5.8306 13.0253,-13.0243 0,-7.1937 -5.8315,-13.0243 -13.0253,-13.0243 -7.1927,0 -13.0233,5.8306 -13.0233,13.0243"
       style="fill:#f0f0f0;fill-opacity:1;fill-rule:nonzero;stroke:none"
       transform="matrix(1.3333333,0,0,-1.3333333,-154.01388,971.5996)"
       clip-path="url(#clipPath368)" />
    <path
       id="path369"
       d="m 0,0 c 0,71.93 58.3,130.23 130.22,130.23 71.93,0 130.24,-58.3 130.24,-130.23 0,-71.93 -58.31,-130.23 -130.24,-130.23 C 58.3,-130.23 0,-71.93 0,0 Z"
       style="fill:none;stroke:#000000;stroke-width:5;stroke-linecap:butt;stroke-linejoin:miter;stroke-miterlimit:3.864;stroke-dasharray:none;stroke-opacity:1"
       transform="matrix(0.13334667,0,0,-0.13334667,77.049325,494.28693)"
       clip-path="url(#clipPath370)" />
    <path
       id="path371"
       d="m 177.4288,358.0995 c 0,5.1165 4.1474,9.2649 9.2639,9.2649 5.1165,0 9.2639,-4.1484 9.2639,-9.2649 0,-5.1165 -4.1474,-9.2639 -9.2639,-9.2639 -5.1165,0 -9.2639,4.1474 -9.2639,9.2639"
       style="fill:#f0f0f0;fill-opacity:1;fill-rule:nonzero;stroke:none"
       transform="matrix(1.3333333,0,0,-1.3333333,-154.01388,971.5996)"
       clip-path="url(#clipPath372)" />
    <path
       id="path373"
       d="m 0,0 c 0,51.16 41.47,92.64 92.63,92.64 51.16,0 92.63,-41.48 92.63,-92.64 0,-51.16 -41.47,-92.63 -92.63,-92.63 C 41.47,-92.63 0,-51.16 0,0 Z"
       style="fill:none;stroke:#000000;stroke-width:5;stroke-linecap:butt;stroke-linejoin:miter;stroke-miterlimit:3.864;stroke-dasharray:none;stroke-opacity:1"
       transform="matrix(0.13334667,0,0,-0.13334667,82.557855,494.1336)"
       clip-path="url(#clipPath374)" />
    <path
       id="path375"
       d="m 188.7689,354.1331 h -4.3804 v 0.288 l 2.4242,2.7123 c 0.6841,0.7671 1.2722,1.6562 1.2722,2.6763 0,1.1041 -0.6241,1.9562 -1.6442,1.9562 -0.7801,0 -1.4281,-0.5521 -1.6562,-1.3682 0.036,0.012 0.06,0.012 0.168,0.012 0.3361,0 0.5641,-0.228 0.5641,-0.564 0,-0.3841 -0.312,-0.5641 -0.5641,-0.5641 -0.036,0 -0.564,0 -0.564,0.6121 0,1.0321 0.8161,2.2202 2.2082,2.2202 1.3921,0 2.4843,-0.9241 2.4843,-2.3042 0,-1.1882 -0.6721,-1.8122 -2.4963,-3.4934 -0.312,-0.287 -1.0441,-1.0551 -1.3681,-1.3321 h 2.2202 c 0.36,0 1.0441,0 1.1281,0.109 0.12,0.192 0.216,0.8521 0.252,1.0551 h 0.2641 l -0.3121,-2.0152"
       style="fill:#000000;fill-opacity:1;fill-rule:nonzero;stroke:none"
       transform="matrix(1.3333333,0,0,-1.3333333,-154.01388,971.5996)"
       clip-path="url(#clipPath376)" />
    <path
       id="path377"
       d="m 368.2979,364.0871 h 2.62526 v 2.50025 h -2.62526 z"
       style="fill:#ffffff;fill-opacity:1;fill-rule:nonzero;stroke:none"
       transform="matrix(1.3333333,0,0,-1.3333333,-220.89991,972.47968)"
       clip-path="url(#clipPath378)" />
    <path
       id="path379"
       d="m 4117.57,3938.68 h 26.25 v 25 h -26.25 z"
       style="fill:none;stroke:#ffffff;stroke-width:5;stroke-linecap:butt;stroke-linejoin:miter;stroke-miterlimit:3.864;stroke-dasharray:none;stroke-opacity:1"
       transform="matrix(0.13334667,0,0,-0.13334667,-278.90023,1012.24)"
       clip-path="url(#clipPath380)" />
    <path
       id="path381"
       d="m 372.9233,364.9622 1.1982,-1.7302 -4.6985,1.6692 4.6354,1.8311 -1.1351,-1.7701"
       style="fill:#000000;fill-opacity:1;fill-rule:evenodd;stroke:none"
       transform="matrix(1.3333333,0,0,-1.3333333,-220.89991,972.47968)"
       clip-path="url(#clipPath382)" />
    <path
       id="path383"
       d="m 345.1726,358.4115 c 0,7.1937 5.8305,13.0243 13.0253,13.0243 7.1937,0 13.0243,-5.8306 13.0243,-13.0243 0,-7.1937 -5.8306,-13.0253 -13.0243,-13.0253 -7.1948,0 -13.0253,5.8316 -13.0253,13.0253"
       style="fill:#f0f0f0;fill-opacity:1;fill-rule:nonzero;stroke:none"
       transform="matrix(1.3333333,0,0,-1.3333333,-220.89991,972.47968)"
       clip-path="url(#clipPath384)" />
    <path
       id="path385"
       d="m 0,0 c 0,71.93 58.3,130.23 130.24,130.23 71.93,0 130.23,-58.3 130.23,-130.23 0,-71.93 -58.3,-130.24 -130.23,-130.24 C 58.3,-130.24 0,-71.93 0,0 Z"
       style="fill:none;stroke:#000000;stroke-width:5;stroke-linecap:butt;stroke-linejoin:miter;stroke-miterlimit:3.864;stroke-dasharray:none;stroke-opacity:1"
       transform="matrix(0.13334667,0,0,-0.13334667,239.33022,494.59768)"
       clip-path="url(#clipPath386)" />
    <path
       id="path387"
       d="m 360.02,354.4351 h -4.3814 v 0.288 l 2.4243,2.7123 c 0.684,0.7671 1.2731,1.6562 1.2731,2.6763 0,1.1041 -0.6241,1.9552 -1.6442,1.9552 -0.7811,0 -1.4291,-0.5511 -1.6562,-1.3682 0.0351,0.013 0.0591,0.013 0.1681,0.013 0.336,0 0.563,-0.229 0.563,-0.564 0,-0.384 -0.311,-0.5641 -0.563,-0.5641 -0.036,0 -0.5651,0 -0.5651,0.6121 0,1.0321 0.8171,2.2202 2.2082,2.2202 1.3922,0 2.4853,-0.9251 2.4853,-2.3042 0,-1.1881 -0.6731,-1.8122 -2.4963,-3.4934 -0.312,-0.287 -1.0441,-1.0551 -1.3691,-1.3321 h 2.2212 c 0.359,0 1.0431,0 1.1271,0.109 0.12,0.192 0.217,0.8521 0.2521,1.0551 h 0.265 l -0.3121,-2.0152"
       style="fill:#000000;fill-opacity:1;fill-rule:nonzero;stroke:none"
       transform="matrix(1.3333333,0,0,-1.3333333,-220.89991,972.47968)"
       clip-path="url(#clipPath388)" />
    <path
       id="path389"
       d="m 320.1611,270.4207 c 0,7.1947 5.8306,13.0253 13.0243,13.0253 7.1917,0 13.0253,-5.8306 13.0253,-13.0253 0,-7.1937 -5.8336,-13.0243 -13.0253,-13.0243 -7.1937,0 -13.0243,5.8306 -13.0243,13.0243"
       style="fill:#f0f0f0;fill-opacity:1;fill-rule:nonzero;stroke:none"
       transform="matrix(1.3333333,0,0,-1.3333333,101.20912,755.98018)"
       clip-path="url(#clipPath390)" />
    <path
       id="path391"
       d="m 0,0 c 0,71.94 58.3,130.24 130.23,130.24 71.91,0 130.24,-58.3 130.24,-130.24 0,-71.93 -58.33,-130.23 -130.24,-130.23 C 58.3,-130.23 0,-71.93 0,0 Z"
       style="fill:none;stroke:#000000;stroke-width:5;stroke-linecap:butt;stroke-linejoin:miter;stroke-miterlimit:3.864;stroke-dasharray:none;stroke-opacity:1"
       transform="matrix(0.13334667,0,0,-0.13334667,528.09059,395.41925)"
       clip-path="url(#clipPath392)" />
    <path
       id="path393"
       d="m 320.2971,186.7524 c 0,7.1947 5.8306,13.0253 13.0253,13.0253 7.1917,0 13.0243,-5.8306 13.0243,-13.0253 0,-7.1937 -5.8326,-13.0243 -13.0243,-13.0243 -7.1947,0 -13.0253,5.8306 -13.0253,13.0243"
       style="fill:#f0f0f0;fill-opacity:1;fill-rule:nonzero;stroke:none"
       transform="matrix(1.3333333,0,0,-1.3333333,101.20912,755.98018)"
       clip-path="url(#clipPath394)" />
    <path
       id="path395"
       d="m 0,0 c 0,71.94 58.3,130.24 130.24,130.24 71.91,0 130.23,-58.3 130.23,-130.24 0,-71.93 -58.32,-130.23 -130.23,-130.23 C 58.3,-130.23 0,-71.93 0,0 Z"
       style="fill:none;stroke:#000000;stroke-width:5;stroke-linecap:butt;stroke-linejoin:miter;stroke-miterlimit:3.864;stroke-dasharray:none;stroke-opacity:1"
       transform="matrix(0.13334667,0,0,-0.13334667,528.27192,506.97698)"
       clip-path="url(#clipPath396)" />
    <path
       id="path397"
       d="m 324.2395,186.6704 c 0,5.1175 4.1464,9.2649 9.2639,9.2649 5.1165,0 9.2629,-4.1474 9.2629,-9.2649 0,-5.1155 -4.1464,-9.2629 -9.2629,-9.2629 -5.1175,0 -9.2639,4.1474 -9.2639,9.2629"
       style="fill:#f0f0f0;fill-opacity:1;fill-rule:nonzero;stroke:none"
       transform="matrix(1.3333333,0,0,-1.3333333,101.20912,755.98018)"
       clip-path="url(#clipPath398)" />
    <path
       id="path399"
       d="m 0,0 c 0,51.17 41.46,92.64 92.63,92.64 51.16,0 92.62,-41.47 92.62,-92.64 0,-51.15 -41.46,-92.62 -92.62,-92.62 C 41.46,-92.62 0,-51.15 0,0 Z"
       style="fill:none;stroke:#000000;stroke-width:5;stroke-linecap:butt;stroke-linejoin:miter;stroke-miterlimit:3.864;stroke-dasharray:none;stroke-opacity:1"
       transform="matrix(0.13334667,0,0,-0.13334667,533.52845,507.08631)"
       clip-path="url(#clipPath400)" />
    <path
       id="path401"
       d="m 289.152,231.1498 c -1.1172,-0.009 -2.0262,-0.316 -2.0262,-0.7561 0,-0.36 0.37,-0.657 0.901,-0.657 0.035,0 0.4401,0 0.7641,0.153 0.3611,0.18 0.3611,0.369 0.3611,0.575 z m 0.666,-1.3051 c 0.17,-0.063 0.3591,-0.063 0.4941,-0.063 0.144,0 0.387,0 0.387,-0.2891 0,-0.296 -0.215,-0.296 -0.467,-0.296 -0.2971,0 -0.7831,0 -1.0001,0.305 -0.4851,-0.35 -1.1702,-0.35 -1.2772,-0.35 -0.874,0 -1.4951,0.5571 -1.4951,1.2421 0,0.8821 1.1881,1.3052 2.6923,1.3222 0,0.55 -0.4141,0.847 -1.1252,0.847 -0.082,0 -0.244,0 -0.496,-0.028 0,-0.431 -0.279,-0.485 -0.422,-0.485 -0.2171,0 -0.4141,0.161 -0.4141,0.423 0,0.6751 0.9081,0.6751 1.3221,0.6751 1.2602,0 1.8012,-0.7021 1.8012,-1.4051 v -1.8982"
       style="fill:#000000;fill-opacity:1;fill-rule:nonzero;stroke:none"
       transform="matrix(1.3333333,0,0,-1.3333333,101.20912,755.98018)"
       clip-path="url(#clipPath402)" />
    <path
       id="path403"
       d="m 294.3285,235.8423 c 0.044,0.027 0.089,0.054 0.17,0.054 0.181,0 0.316,-0.144 0.316,-0.3151 0,-0.054 0,-0.198 -0.207,-0.306 l -0.9551,-0.513 c 0.091,-0.045 0.7831,-0.4141 0.9811,-0.5311 0.054,-0.027 0.181,-0.099 0.181,-0.28 0,-0.17 -0.135,-0.314 -0.316,-0.314 -0.081,0 -0.098,0 -0.315,0.135 -0.242,0.153 -0.6561,0.396 -0.8281,0.495 0.018,-0.225 0.027,-0.8101 0.027,-1.0531 0,-0.072 0,-0.387 -0.314,-0.387 -0.3161,0 -0.3161,0.315 -0.3161,0.387 0,0.243 0.009,0.8281 0.027,1.0531 l -0.9711,-0.576 c -0.045,-0.027 -0.091,-0.054 -0.172,-0.054 -0.18,0 -0.314,0.144 -0.314,0.314 0,0.046 0,0.199 0.207,0.307 l 0.9531,0.5131 -0.9531,0.504 c -0.162,0.09 -0.207,0.198 -0.207,0.306 0,0.1711 0.134,0.3151 0.314,0.3151 0.081,0 0.1,-0.018 0.217,-0.081 l 0.9261,-0.5491 c -0.018,0.225 -0.027,0.8101 -0.027,1.0531 0,0.072 0,0.3871 0.3161,0.3871 0.314,0 0.314,-0.3151 0.314,-0.3871 0,-0.243 -0.009,-0.8281 -0.027,-1.0531 l 0.9731,0.5761"
       style="fill:#000000;fill-opacity:1;fill-rule:nonzero;stroke:none"
       transform="matrix(1.3333333,0,0,-1.3333333,101.20912,755.98018)"
       clip-path="url(#clipPath404)" />
    <path
       id="path405"
       d="m 296.9487,230.9338 c 0,-0.4691 0.3501,-1.1971 0.9891,-1.1971 0.6581,0 1.2422,0.602 1.2422,1.4041 0,0.7821 -0.5311,1.3941 -1.1522,1.3941 -0.549,0 -1.0791,-0.44 -1.0791,-0.9711 z m 0,1.7722 c 0.3151,0.262 0.6921,0.414 1.1162,0.414 1.0081,0 1.7811,-0.9091 1.7811,-1.9792 0,-1.1351 -0.8731,-1.9892 -1.8712,-1.9892 -0.396,0 -0.748,0.162 -1.0261,0.4311 0,-0.1791 0,-0.3861 -0.333,-0.3861 -0.333,0 -0.333,0.207 -0.333,0.3861 v 4.5284 h -0.3961 c -0.136,0 -0.379,0 -0.379,0.297 0,0.2881 0.252,0.2881 0.379,0.2881 h 0.6841 c 0.305,0 0.378,-0.081 0.378,-0.3781 v -1.6121"
       style="fill:#000000;fill-opacity:1;fill-rule:nonzero;stroke:none"
       transform="matrix(1.3333333,0,0,-1.3333333,101.20912,755.98018)"
       clip-path="url(#clipPath406)" />
    <path
       id="path407"
       d="m 303.1234,226.9544 c -0.1081,0 -0.9451,0.658 -1.4762,1.7652 -0.494,1.0621 -0.576,2.0882 -0.576,2.7352 0,1.0721 0.217,1.9982 0.648,2.8633 0.4871,0.9801 1.2961,1.6292 1.4042,1.6292 0.063,0 0.108,-0.036 0.108,-0.099 0,-0.045 -0.018,-0.072 -0.054,-0.108 -1.2682,-1.2062 -1.5392,-2.8983 -1.5392,-4.2935 0,-1.5761 0.351,-3.1963 1.5122,-4.2574 0.054,-0.064 0.081,-0.09 0.081,-0.135 0,-0.063 -0.045,-0.1 -0.108,-0.1"
       style="fill:#000000;fill-opacity:1;fill-rule:nonzero;stroke:none"
       transform="matrix(1.3333333,0,0,-1.3333333,101.20912,755.98018)"
       clip-path="url(#clipPath408)" />
    <path
       id="path409"
       d="m 306.0287,231.1498 c -1.1172,-0.009 -2.0262,-0.316 -2.0262,-0.7561 0,-0.36 0.37,-0.657 0.901,-0.657 0.035,0 0.4401,0 0.7641,0.153 0.3611,0.18 0.3611,0.369 0.3611,0.575 z m 0.666,-1.3051 c 0.17,-0.063 0.3591,-0.063 0.4941,-0.063 0.144,0 0.387,0 0.387,-0.2891 0,-0.296 -0.215,-0.296 -0.467,-0.296 -0.2971,0 -0.7831,0 -1.0001,0.305 -0.4861,-0.35 -1.1702,-0.35 -1.2772,-0.35 -0.8741,0 -1.4951,0.5571 -1.4951,1.2421 0,0.8821 1.1881,1.3052 2.6923,1.3222 0,0.55 -0.4141,0.847 -1.1252,0.847 -0.082,0 -0.244,0 -0.496,-0.028 0,-0.431 -0.279,-0.485 -0.422,-0.485 -0.2171,0 -0.4141,0.161 -0.4141,0.423 0,0.6751 0.9081,0.6751 1.3221,0.6751 1.2602,0 1.8012,-0.7021 1.8012,-1.4051 v -1.8982"
       style="fill:#000000;fill-opacity:1;fill-rule:nonzero;stroke:none"
       transform="matrix(1.3333333,0,0,-1.3333333,101.20912,755.98018)"
       clip-path="url(#clipPath410)" />
    <path
       id="path411"
       d="m 314.4275,230.9508 c 0,-1.3041 -1.3141,-1.9532 -2.4943,-1.9532 -1.1791,0 -2.4922,0.6401 -2.4922,1.9532 v 3.3313 c 0,0.126 0,0.296 0.18,0.296 0.179,0 0.179,-0.17 0.179,-0.296 v -3.3033 c 0,-1.2061 1.2792,-1.6202 2.1332,-1.6202 0.8641,0 2.1333,0.4231 2.1333,1.6202 v 3.3033 c 0,0.126 0,0.296 0.181,0.296 0.18,0 0.18,-0.17 0.18,-0.296 v -3.3313"
       style="fill:#000000;fill-opacity:1;fill-rule:nonzero;stroke:none"
       transform="matrix(1.3333333,0,0,-1.3333333,101.20912,755.98018)"
       clip-path="url(#clipPath412)" />
    <path
       id="path413"
       d="m 317.8008,230.9338 c 0,-0.4691 0.3501,-1.1971 0.9901,-1.1971 0.6571,0 1.2422,0.602 1.2422,1.4041 0,0.7821 -0.5321,1.3941 -1.1532,1.3941 -0.548,0 -1.0791,-0.44 -1.0791,-0.9711 z m 0,1.7722 c 0.3151,0.262 0.6931,0.414 1.1151,0.414 1.0081,0 1.7832,-0.9091 1.7832,-1.9792 0,-1.1351 -0.8731,-1.9892 -1.8722,-1.9892 -0.397,0 -0.747,0.162 -1.0261,0.4311 0,-0.1791 0,-0.3861 -0.334,-0.3861 -0.332,0 -0.332,0.207 -0.332,0.3861 v 4.5284 h -0.3961 c -0.135,0 -0.379,0 -0.379,0.297 0,0.2881 0.253,0.2881 0.379,0.2881 h 0.6831 c 0.307,0 0.379,-0.081 0.379,-0.3781 v -1.6121"
       style="fill:#000000;fill-opacity:1;fill-rule:nonzero;stroke:none"
       transform="matrix(1.3333333,0,0,-1.3333333,101.20912,755.98018)"
       clip-path="url(#clipPath414)" />
    <path
       id="path415"
       d="m 323.0484,228.5836 c -0.4861,-0.9801 -1.2962,-1.6292 -1.4042,-1.6292 -0.09,0 -0.108,0.073 -0.108,0.1 0,0.045 0.037,0.081 0.054,0.107 1.3051,1.2151 1.5392,3.0063 1.5392,4.2934 0,2.5663 -0.9901,3.7894 -1.5112,4.2575 -0.064,0.064 -0.082,0.091 -0.082,0.136 0,0.026 0.018,0.099 0.108,0.099 0.108,0 0.9451,-0.6581 1.4762,-1.7642 0.468,-0.9991 0.576,-1.9892 0.576,-2.7283 0,-1.0801 -0.216,-2.0062 -0.648,-2.8712"
       style="fill:#000000;fill-opacity:1;fill-rule:nonzero;stroke:none"
       transform="matrix(1.3333333,0,0,-1.3333333,101.20912,755.98018)"
       clip-path="url(#clipPath416)" />
    <path
       id="path417"
       d="m 326.8797,235.8423 c 0.045,0.027 0.09,0.054 0.1721,0.054 0.18,0 0.315,-0.144 0.315,-0.3151 0,-0.054 0,-0.198 -0.207,-0.306 l -0.9541,-0.513 c 0.09,-0.045 0.783,-0.4141 0.9811,-0.5311 0.054,-0.027 0.18,-0.099 0.18,-0.28 0,-0.17 -0.135,-0.314 -0.315,-0.314 -0.0821,0 -0.0991,0 -0.3151,0.135 -0.243,0.153 -0.657,0.396 -0.8281,0.495 0.018,-0.225 0.026,-0.8101 0.026,-1.0531 0,-0.072 0,-0.387 -0.314,-0.387 -0.315,0 -0.315,0.315 -0.315,0.387 0,0.243 0.008,0.8281 0.027,1.0531 l -0.9721,-0.576 c -0.045,-0.027 -0.09,-0.054 -0.172,-0.054 -0.1801,0 -0.3141,0.144 -0.3141,0.314 0,0.046 0,0.199 0.2071,0.307 l 0.954,0.5131 -0.954,0.504 c -0.1631,0.09 -0.2071,0.198 -0.2071,0.306 0,0.1711 0.134,0.3151 0.3141,0.3151 0.082,0 0.1,-0.018 0.217,-0.081 l 0.9271,-0.5491 c -0.019,0.225 -0.027,0.8101 -0.027,1.0531 0,0.072 0,0.3871 0.315,0.3871 0.314,0 0.314,-0.3151 0.314,-0.3871 0,-0.243 -0.008,-0.8281 -0.026,-1.0531 l 0.9711,0.5761"
       style="fill:#000000;fill-opacity:1;fill-rule:nonzero;stroke:none"
       transform="matrix(1.3333333,0,0,-1.3333333,101.20912,755.98018)"
       clip-path="url(#clipPath418)" />
    <path
       id="path419"
       d="m 334.0564,272.6239 c -1.1391,0 -1.3671,-0.876 -1.3671,-1.1031 0,-0.54 0.4551,-0.636 1.1641,-0.78 0.2641,-0.06 1.3082,-0.2771 1.3082,-1.3212 0,-0.624 -0.5171,-1.9672 -2.3653,-1.9672 -0.9721,0 -1.6791,0.4441 -1.6791,1.1521 0,0.5521 0.347,0.7441 0.611,0.7441 0.264,0 0.4081,-0.156 0.4081,-0.385 0,-0.287 -0.2751,-0.6471 -0.7191,-0.5751 0.179,-0.528 0.8521,-0.696 1.3911,-0.696 1.4042,0 1.7402,0.9601 1.7402,1.3551 0,0.6601 -0.6601,0.8051 -1.1641,0.9121 -0.4671,0.097 -1.3081,0.265 -1.3081,1.1771 0,0.491 0.408,1.7282 1.9922,1.7282 0.852,0 1.3921,-0.4451 1.3921,-1.0201 0,-0.5161 -0.324,-0.6371 -0.5031,-0.6371 -0.18,0 -0.336,0.121 -0.336,0.325 0,0.011 0,0.4671 0.5511,0.4671 -0.1431,0.469 -0.6711,0.624 -1.1162,0.624"
       style="fill:#000000;fill-opacity:1;fill-rule:nonzero;stroke:none"
       transform="matrix(1.3333333,0,0,-1.3333333,101.20912,755.98018)"
       clip-path="url(#clipPath420)" />
    <path
       id="path421"
       d="m 334.8045,187.1754 c 0.012,0.036 0.024,0.132 0.024,0.156 0,0.0731 -0.145,1.0922 -0.9361,1.0922 -0.516,0 -1.0681,-0.5161 -1.4161,-1.2482 -0.276,-0.563 -0.6251,-1.9202 -0.6251,-2.5312 0,-0.7441 0.3131,-1.1531 0.7691,-1.1531 0.7081,0 1.4882,0.9131 1.5842,1.2851 z m 0.108,-2.5802 c -0.073,-0.2751 -0.073,-0.4431 -0.073,-0.5401 0,-0.18 0.013,-0.564 0.3731,-0.564 0.516,0 0.745,0.792 0.9131,1.4641 0.035,0.18 0.046,0.241 0.168,0.241 0.071,0 0.119,-0.037 0.119,-0.109 0,-0.036 -0.168,-0.7921 -0.3841,-1.2121 -0.181,-0.347 -0.42,-0.6241 -0.84,-0.6241 -0.5281,0 -0.9601,0.3361 -1.0441,0.9121 -0.5161,-0.599 -1.0451,-0.9121 -1.5602,-0.9121 -0.8171,0 -1.5121,0.6721 -1.5121,1.8842 0,1.7762 1.4521,3.5284 2.8202,3.5284 0.6601,0 0.9721,-0.5401 1.0801,-0.8031 0.035,0.263 0.1681,0.5761 0.4921,0.5761 0.24,0 0.324,-0.1811 0.324,-0.3011 0,-0.035 -0.012,-0.096 -0.037,-0.168 l -0.8391,-3.3723"
       style="fill:#000000;fill-opacity:1;fill-rule:nonzero;stroke:none"
       transform="matrix(1.3333333,0,0,-1.3333333,101.20912,755.98018)"
       clip-path="url(#clipPath422)" />
    <path
       id="path423"
       d="M 0,0 -0.16,-539.45"
       style="fill:none;stroke:#000000;stroke-width:5;stroke-linecap:butt;stroke-linejoin:miter;stroke-miterlimit:3.864;stroke-dasharray:none;stroke-opacity:1"
       transform="matrix(0.13334667,0,0,-0.13334667,545.45632,413.11831)"
       clip-path="url(#clipPath424)" />
    <path
       id="path425"
       d="m 333.1694,203.196 1.7501,1.1661 -1.7501,-4.6664 -1.7502,4.6664 1.7502,-1.1661"
       style="fill:#000000;fill-opacity:1;fill-rule:evenodd;stroke:none"
       transform="matrix(1.3333333,0,0,-1.3333333,101.20912,755.98018)"
       clip-path="url(#clipPath426)" />
    <path
       id="path427"
       d="M 0,0 H 71.95"
       style="fill:none;stroke:#000000;stroke-width:5;stroke-linecap:butt;stroke-linejoin:miter;stroke-miterlimit:3.864;stroke-dasharray:none;stroke-opacity:1"
       transform="matrix(0.13334667,0,0,-0.13334667,513.75845,395.50458)"
       clip-path="url(#clipPath428)" />
    <path
       id="path429"
       d="m 316.6077,270.3567 -1.1661,1.7502 4.6665,-1.7502 -4.6665,-1.7502 1.1661,1.7502"
       style="fill:#000000;fill-opacity:1;fill-rule:evenodd;stroke:none"
       transform="matrix(1.3333333,0,0,-1.3333333,101.20912,755.98018)"
       clip-path="url(#clipPath430)" />
    <path
       id="path431"
       d="m 143.1564,187.2175 c 0,7.1937 5.8306,13.0243 13.0243,13.0243 7.1937,0 13.0253,-5.8306 13.0253,-13.0243 0,-7.1938 -5.8316,-13.0243 -13.0253,-13.0243 -7.1937,0 -13.0243,5.8305 -13.0243,13.0243"
       style="fill:#f0f0f0;fill-opacity:1;fill-rule:nonzero;stroke:none"
       transform="matrix(1.3333333,0,0,-1.3333333,144.33301,756.86026)"
       clip-path="url(#clipPath432)" />
    <path
       id="path433"
       d="m 0,0 c 0,71.93 58.3,130.23 130.23,130.23 71.93,0 130.24,-58.3 130.24,-130.23 0,-71.93 -58.31,-130.23 -130.24,-130.23 C 58.3,-130.23 0,-71.93 0,0 Z"
       style="fill:none;stroke:#000000;stroke-width:4.7;stroke-linecap:butt;stroke-linejoin:miter;stroke-miterlimit:3.864;stroke-dasharray:none;stroke-opacity:1"
       transform="matrix(0.13334667,0,0,-0.13334667,335.20821,507.23693)"
       clip-path="url(#clipPath434)" />
    <path
       id="path435"
       d="m 147.0538,187.0804 c 0,5.1166 4.1474,9.265 9.2639,9.265 5.1165,0 9.264,-4.1484 9.264,-9.265 0,-5.1175 -4.1475,-9.2639 -9.264,-9.2639 -5.1165,0 -9.2639,4.1464 -9.2639,9.2639"
       style="fill:#f0f0f0;fill-opacity:1;fill-rule:nonzero;stroke:none"
       transform="matrix(1.3333333,0,0,-1.3333333,144.33301,756.86026)"
       clip-path="url(#clipPath436)" />
    <path
       id="path437"
       d="m 0,0 c 0,51.16 41.47,92.64 92.63,92.64 51.16,0 92.63,-41.48 92.63,-92.64 0,-51.17 -41.47,-92.63 -92.63,-92.63 C 41.47,-92.63 0,-51.17 0,0 Z"
       style="fill:none;stroke:#000000;stroke-width:4.7;stroke-linecap:butt;stroke-linejoin:miter;stroke-miterlimit:3.864;stroke-dasharray:none;stroke-opacity:1"
       transform="matrix(0.13334667,0,0,-0.13334667,340.40474,507.41973)"
       clip-path="url(#clipPath438)" />
    <path
       id="path439"
       d="m 143.1564,187.2175 c 0,7.1937 5.8306,13.0243 13.0243,13.0243 7.1937,0 13.0253,-5.8306 13.0253,-13.0243 0,-7.1938 -5.8316,-13.0243 -13.0253,-13.0243 -7.1937,0 -13.0243,5.8305 -13.0243,13.0243"
       style="fill:#f0f0f0;fill-opacity:1;fill-rule:nonzero;stroke:none"
       transform="matrix(1.3333333,0,0,-1.3333333,144.33301,756.86026)"
       clip-path="url(#clipPath440)" />
    <path
       id="path441"
       d="m 0,0 c 0,71.93 58.3,130.23 130.23,130.23 71.93,0 130.24,-58.3 130.24,-130.23 0,-71.93 -58.31,-130.23 -130.24,-130.23 C 58.3,-130.23 0,-71.93 0,0 Z"
       style="fill:none;stroke:#000000;stroke-width:5;stroke-linecap:butt;stroke-linejoin:miter;stroke-miterlimit:3.864;stroke-dasharray:none;stroke-opacity:1"
       transform="matrix(0.13334667,0,0,-0.13334667,335.20821,507.23693)"
       clip-path="url(#clipPath442)" />
    <path
       id="path443"
       d="m 147.0988,187.1354 c 0,5.1176 4.1474,9.265 9.2639,9.265 5.1166,0 9.264,-4.1474 9.264,-9.265 0,-5.1155 -4.1474,-9.2649 -9.264,-9.2649 -5.1165,0 -9.2639,4.1494 -9.2639,9.2649"
       style="fill:#f0f0f0;fill-opacity:1;fill-rule:nonzero;stroke:none"
       transform="matrix(1.3333333,0,0,-1.3333333,144.33301,756.86026)"
       clip-path="url(#clipPath444)" />
    <path
       id="path445"
       d="m 0,0 c 0,51.17 41.47,92.64 92.63,92.64 51.16,0 92.63,-41.47 92.63,-92.64 0,-51.15 -41.47,-92.64 -92.63,-92.64 C 41.47,-92.64 0,-51.15 0,0 Z"
       style="fill:none;stroke:#000000;stroke-width:5;stroke-linecap:butt;stroke-linejoin:miter;stroke-miterlimit:3.864;stroke-dasharray:none;stroke-opacity:1"
       transform="matrix(0.13334667,0,0,-0.13334667,340.46474,507.34639)"
       clip-path="url(#clipPath446)" />
    <path
       id="path447"
       d="M 0,0 -473.75,-618.75"
       style="fill:none;stroke:#000000;stroke-width:5;stroke-linecap:butt;stroke-linejoin:miter;stroke-miterlimit:3.864;stroke-dasharray:none;stroke-opacity:1"
       transform="matrix(0.13334667,0,0,-0.13334667,431.20981,409.25786)"
       clip-path="url(#clipPath448)" />
    <path
       id="path449"
       d="m 167.7779,198.8206 2.0992,-0.122 -4.2064,-2.6733 1.4111,4.7795 0.6961,-1.9842"
       style="fill:#000000;fill-opacity:1;fill-rule:evenodd;stroke:none"
       transform="matrix(1.3333333,0,0,-1.3333333,144.33301,756.86026)"
       clip-path="url(#clipPath450)" />
    <path
       id="path451"
       d="m 159.123,230.4097 c 0,-0.469 0.35,-1.1981 0.9901,-1.1981 0.6571,0 1.2421,0.6031 1.2421,1.4052 0,0.782 -0.531,1.3941 -1.1531,1.3941 -0.548,0 -1.0791,-0.4401 -1.0791,-0.9721 z m 0,1.7722 c 0.315,0.262 0.6931,0.4141 1.1151,0.4141 1.0091,0 1.7832,-0.9091 1.7832,-1.9792 0,-1.1352 -0.8731,-1.9902 -1.8722,-1.9902 -0.397,0 -0.7471,0.162 -1.0261,0.432 0,-0.18 0,-0.387 -0.333,-0.387 -0.3331,0 -0.3331,0.207 -0.3331,0.387 v 4.5274 h -0.396 c -0.136,0 -0.379,0 -0.379,0.2971 0,0.288 0.253,0.288 0.379,0.288 h 0.6831 c 0.306,0 0.379,-0.081 0.379,-0.378 v -1.6112"
       style="fill:#000000;fill-opacity:1;fill-rule:nonzero;stroke:none"
       transform="matrix(1.3333333,0,0,-1.3333333,144.33301,756.86026)"
       clip-path="url(#clipPath452)" />
    <path
       id="path453"
       d="m 165.2976,226.4303 c -0.108,0 -0.9451,0.6571 -1.4761,1.7652 -0.4951,1.0611 -0.5761,2.0882 -0.5761,2.7353 0,1.0711 0.216,1.9982 0.6481,2.8623 0.486,0.9811 1.2961,1.6291 1.4041,1.6291 0.063,0 0.108,-0.036 0.108,-0.098 0,-0.045 -0.018,-0.073 -0.054,-0.109 -1.2691,-1.2061 -1.5391,-2.8973 -1.5391,-4.2934 0,-1.5752 0.351,-3.1953 1.5121,-4.2574 0.054,-0.0631 0.081,-0.0891 0.081,-0.1341 0,-0.064 -0.045,-0.1 -0.108,-0.1"
       style="fill:#000000;fill-opacity:1;fill-rule:nonzero;stroke:none"
       transform="matrix(1.3333333,0,0,-1.3333333,144.33301,756.86026)"
       clip-path="url(#clipPath454)" />
    <path
       id="path455"
       d="m 168.2029,230.6248 c -1.1161,-0.008 -2.0252,-0.3151 -2.0252,-0.7561 0,-0.3601 0.3701,-0.6571 0.9001,-0.6571 0.036,0 0.4411,0 0.7651,0.154 0.36,0.179 0.36,0.3691 0.36,0.5751 z m 0.6661,-1.3042 c 0.171,-0.064 0.36,-0.064 0.495,-0.064 0.1451,0 0.3871,0 0.3871,-0.288 0,-0.297 -0.216,-0.297 -0.4671,-0.297 -0.297,0 -0.784,0 -1.0001,0.306 -0.486,-0.351 -1.1701,-0.351 -1.2771,-0.351 -0.8731,0 -1.4951,0.558 -1.4951,1.2421 0,0.8821 1.1881,1.3051 2.6912,1.3231 0,0.5501 -0.414,0.8461 -1.1251,0.8461 -0.081,0 -0.243,0 -0.495,-0.027 0,-0.4321 -0.2791,-0.4851 -0.4231,-0.4851 -0.216,0 -0.414,0.1611 -0.414,0.4231 0,0.6741 0.9091,0.6741 1.3231,0.6741 1.2601,0 1.8002,-0.7021 1.8002,-1.4042 v -1.8982"
       style="fill:#000000;fill-opacity:1;fill-rule:nonzero;stroke:none"
       transform="matrix(1.3333333,0,0,-1.3333333,144.33301,756.86026)"
       clip-path="url(#clipPath456)" />
    <path
       id="path457"
       d="m 176.6017,230.4267 c 0,-1.3051 -1.3151,-1.9532 -2.4932,-1.9532 -1.1801,0 -2.4943,0.6401 -2.4943,1.9532 v 3.3304 c 0,0.126 0,0.297 0.18,0.297 0.1801,0 0.1801,-0.171 0.1801,-0.297 v -3.3034 c 0,-1.2061 1.2791,-1.6201 2.1342,-1.6201 0.8631,0 2.1332,0.423 2.1332,1.6201 v 3.3034 c 0,0.126 0,0.297 0.18,0.297 0.18,0 0.18,-0.171 0.18,-0.297 v -3.3304"
       style="fill:#000000;fill-opacity:1;fill-rule:nonzero;stroke:none"
       transform="matrix(1.3333333,0,0,-1.3333333,144.33301,756.86026)"
       clip-path="url(#clipPath458)" />
    <path
       id="path459"
       d="m 179.9751,230.4097 c 0,-0.469 0.351,-1.1981 0.9901,-1.1981 0.657,0 1.2421,0.6031 1.2421,1.4052 0,0.782 -0.5311,1.3941 -1.1531,1.3941 -0.5481,0 -1.0791,-0.4401 -1.0791,-0.9721 z m 0,1.7722 c 0.315,0.262 0.693,0.4141 1.1151,0.4141 1.0091,0 1.7831,-0.9091 1.7831,-1.9792 0,-1.1352 -0.873,-1.9902 -1.8721,-1.9902 -0.3961,0 -0.7471,0.162 -1.0261,0.432 0,-0.18 0,-0.387 -0.3331,-0.387 -0.333,0 -0.333,0.207 -0.333,0.387 v 4.5275 h -0.3961 c -0.136,0 -0.378,0 -0.378,0.297 0,0.288 0.252,0.288 0.378,0.288 h 0.6831 c 0.306,0 0.3791,-0.081 0.3791,-0.378 v -1.6112"
       style="fill:#000000;fill-opacity:1;fill-rule:nonzero;stroke:none"
       transform="matrix(1.3333333,0,0,-1.3333333,144.33301,756.86026)"
       clip-path="url(#clipPath460)" />
    <path
       id="path461"
       d="m 185.2236,228.0595 c -0.4871,-0.9811 -1.2972,-1.6292 -1.4052,-1.6292 -0.089,0 -0.107,0.072 -0.107,0.1 0,0.045 0.036,0.0811 0.054,0.1071 1.3052,1.2151 1.5392,3.0063 1.5392,4.2934 0,2.5652 -0.9901,3.7894 -1.5122,4.2574 -0.063,0.063 -0.081,0.091 -0.081,0.136 0,0.026 0.018,0.098 0.107,0.098 0.108,0 0.9461,-0.657 1.4772,-1.7631 0.468,-0.9991 0.576,-1.9902 0.576,-2.7283 0,-1.0801 -0.217,-2.0072 -0.648,-2.8713"
       style="fill:#000000;fill-opacity:1;fill-rule:nonzero;stroke:none"
       transform="matrix(1.3333333,0,0,-1.3333333,144.33301,756.86026)"
       clip-path="url(#clipPath462)" />
    <path
       id="path463"
       d="m 188.6769,234.2381 c 0.3691,-0.19 0.8641,-0.451 1.0891,-0.585 0.081,-0.054 0.1441,-0.1351 0.1441,-0.2431 0,-0.171 -0.1531,-0.28 -0.2791,-0.28 -0.063,0 -0.081,0 -0.297,0.145 -0.297,0.179 -0.5941,0.3591 -0.8911,0.5491 0,-0.2521 0.027,-1.0441 0.027,-1.2512 0,-0.154 -0.126,-0.271 -0.27,-0.271 -0.135,0 -0.27,0.109 -0.27,0.271 0,0.1701 0,0.5211 0.018,0.6741 l 0.009,0.5771 -0.9991,-0.6221 c -0.054,-0.027 -0.1261,-0.072 -0.1891,-0.072 -0.126,0 -0.279,0.109 -0.279,0.28 0,0.134 0.081,0.2151 0.189,0.2701 l 1.0441,0.566 -1.0441,0.5591 c -0.108,0.054 -0.189,0.135 -0.189,0.27 0,0.17 0.153,0.279 0.279,0.279 0.063,0 0.1351,-0.045 0.1891,-0.072 l 0.9991,-0.621 c 0,0.207 -0.009,0.729 -0.018,0.909 -0.009,0.008 -0.009,0.0811 -0.009,0.3411 0,0.163 0.126,0.271 0.27,0.271 0.144,0 0.27,-0.117 0.27,-0.271 0,-0.198 -0.027,-0.9991 -0.027,-1.2501 l 0.9991,0.621 c 0.054,0.027 0.126,0.072 0.189,0.072 0.126,0 0.2791,-0.109 0.2791,-0.279 0,-0.135 -0.0811,-0.216 -0.1891,-0.27 l -1.0441,-0.5671"
       style="fill:#000000;fill-opacity:1;fill-rule:nonzero;stroke:none"
       transform="matrix(1.3333333,0,0,-1.3333333,144.33301,756.86026)"
       clip-path="url(#clipPath464)" />
    <path
       id="path465"
       d="m 157.4589,187.8305 c 0.012,0.036 0.024,0.132 0.024,0.157 0,0.072 -0.1451,1.0911 -0.9361,1.0911 -0.5161,0 -1.0681,-0.5151 -1.4162,-1.2481 -0.276,-0.5631 -0.625,-1.9202 -0.625,-2.5313 0,-0.7441 0.312,-1.1521 0.769,-1.1521 0.7081,0 1.4882,0.9121 1.5842,1.2841 z m 0.107,-2.5803 c -0.071,-0.275 -0.071,-0.443 -0.071,-0.54 0,-0.1801 0.012,-0.5631 0.372,-0.5631 0.516,0 0.7441,0.7921 0.9121,1.4641 0.036,0.1791 0.048,0.2401 0.168,0.2401 0.072,0 0.119,-0.036 0.119,-0.109 0,-0.036 -0.167,-0.7921 -0.383,-1.2122 -0.181,-0.347 -0.4201,-0.624 -0.8401,-0.624 -0.5281,0 -0.9601,0.336 -1.0441,0.9131 -0.5161,-0.6001 -1.0451,-0.9131 -1.5602,-0.9131 -0.817,0 -1.5121,0.672 -1.5121,1.8842 0,1.7771 1.4521,3.5293 2.8203,3.5293 0.66,0 0.9721,-0.54 1.0801,-0.8041 0.036,0.2641 0.168,0.5761 0.492,0.5761 0.24,0 0.3241,-0.181 0.3241,-0.301 0,-0.035 -0.012,-0.095 -0.036,-0.1681 l -0.8411,-3.3723"
       style="fill:#000000;fill-opacity:1;fill-rule:nonzero;stroke:none"
       transform="matrix(1.3333333,0,0,-1.3333333,144.33301,756.86026)"
       clip-path="url(#clipPath466)" />
    <path
       id="path467"
       d="m 144.1565,271.2258 c 0,7.1937 5.8306,13.0243 13.0243,13.0243 7.1937,0 13.0253,-5.8306 13.0253,-13.0243 0,-7.1937 -5.8316,-13.0243 -13.0253,-13.0243 -7.1937,0 -13.0243,5.8306 -13.0243,13.0243"
       style="fill:#f0f0f0;fill-opacity:1;fill-rule:nonzero;stroke:none"
       transform="matrix(1.3333333,0,0,-1.3333333,144.33301,756.86026)"
       clip-path="url(#clipPath468)" />
    <path
       id="path469"
       d="m 0,0 c 0,71.93 58.3,130.23 130.23,130.23 71.93,0 130.24,-58.3 130.24,-130.23 0,-71.93 -58.31,-130.23 -130.24,-130.23 C 58.3,-130.23 0,-71.93 0,0 Z"
       style="fill:none;stroke:#000000;stroke-width:5;stroke-linecap:butt;stroke-linejoin:miter;stroke-miterlimit:3.864;stroke-dasharray:none;stroke-opacity:1"
       transform="matrix(0.13334667,0,0,-0.13334667,336.54168,395.22586)"
       clip-path="url(#clipPath470)" />
    <path
       id="path471"
       d="m 158.1039,273.189 c -1.1411,0 -1.3681,-0.8761 -1.3681,-1.1041 0,-0.5401 0.455,-0.6351 1.1641,-0.7801 0.263,-0.059 1.3081,-0.276 1.3081,-1.3201 0,-0.6241 -0.517,-1.9682 -2.3652,-1.9682 -0.9721,0 -1.6802,0.444 -1.6802,1.1521 0,0.5521 0.3481,0.7451 0.6121,0.7451 0.264,0 0.408,-0.157 0.408,-0.3851 0,-0.287 -0.275,-0.648 -0.72,-0.575 0.18,-0.5291 0.853,-0.6971 1.3931,-0.6971 1.4031,0 1.7392,0.9601 1.7392,1.3561 0,0.6601 -0.6601,0.8041 -1.1642,0.9121 -0.468,0.097 -1.3081,0.2641 -1.3081,1.1772 0,0.491 0.4081,1.7271 1.9922,1.7271 0.8521,0 1.3932,-0.444 1.3932,-1.0191 0,-0.517 -0.3251,-0.637 -0.5041,-0.637 -0.18,0 -0.336,0.12 -0.336,0.324 0,0.012 0,0.468 0.551,0.468 -0.144,0.4691 -0.672,0.6241 -1.1151,0.6241"
       style="fill:#000000;fill-opacity:1;fill-rule:nonzero;stroke:none"
       transform="matrix(1.3333333,0,0,-1.3333333,144.33301,756.86026)"
       clip-path="url(#clipPath472)" />
    <path
       id="path473"
       d="M 0,0 351.97,-0.23"
       style="fill:none;stroke:#000000;stroke-width:5;stroke-linecap:butt;stroke-linejoin:miter;stroke-miterlimit:3.864;stroke-dasharray:none;stroke-opacity:1"
       transform="matrix(0.13334667,0,0,-0.13334667,371.27448,395.22586)"
       clip-path="url(#clipPath474)" />
    <path
       id="path475"
       d="m 205.4066,271.2028 -1.1681,1.7502 4.6685,-1.7502 -4.6685,-1.7502 1.1681,1.7502"
       style="fill:#000000;fill-opacity:1;fill-rule:evenodd;stroke:none"
       transform="matrix(1.3333333,0,0,-1.3333333,144.33301,756.86026)"
       clip-path="url(#clipPath476)" />
    <path
       id="path477"
       d="m 241.3182,281.2338 c -1.1171,-0.009 -2.0252,-0.316 -2.0252,-0.7561 0,-0.36 0.369,-0.657 0.9001,-0.657 0.036,0 0.441,0 0.7651,0.153 0.36,0.18 0.36,0.369 0.36,0.575 z m 0.6661,-1.3051 c 0.171,-0.063 0.36,-0.063 0.495,-0.063 0.144,0 0.387,0 0.387,-0.2881 0,-0.297 -0.216,-0.297 -0.468,-0.297 -0.297,0 -0.7831,0 -0.9991,0.305 -0.4861,-0.35 -1.1701,-0.35 -1.2781,-0.35 -0.8731,0 -1.4942,0.5571 -1.4942,1.2421 0,0.8821 1.1881,1.3052 2.6913,1.3222 0,0.55 -0.4141,0.8471 -1.1251,0.8471 -0.081,0 -0.243,0 -0.4951,-0.0271 0,-0.432 -0.279,-0.486 -0.423,-0.486 -0.216,0 -0.4141,0.161 -0.4141,0.423 0,0.6751 0.9091,0.6751 1.3232,0.6751 1.2601,0 1.8002,-0.7021 1.8002,-1.4041 v -1.8992"
       style="fill:#000000;fill-opacity:1;fill-rule:nonzero;stroke:none"
       transform="matrix(1.3333333,0,0,-1.3333333,144.33301,756.86026)"
       clip-path="url(#clipPath478)" />
    <path
       id="path479"
       d="m 188.0769,276.9684 c 0.432,0 0.459,0.064 0.495,0.172 -0.126,0.045 -0.206,0.045 -0.369,0.045 -0.108,0 -0.4501,0 -0.7471,-0.126 0.261,-0.091 0.5131,-0.091 0.6211,-0.091 z m -1.4672,-0.8901 c 0,-0.5941 0.8831,-0.5941 1.4132,-0.5941 1.2241,0 1.3591,0.1881 1.5131,0.4041 0.035,0.046 0.08,0.064 0.116,0.064 0.091,0 0.153,-0.073 0.153,-0.154 0,-0.162 -0.477,-0.9991 -1.9352,-0.9991 -1.1521,0 -1.7011,0.504 -1.7011,1.1801 0,0.549 0.387,0.9541 0.576,1.0981 -0.045,0.063 -0.18,0.252 -0.18,0.522 0,0.6391 0.7291,1.5032 2.2862,1.5032 0.6661,0 1.3512,-0.333 1.3512,-0.6311 0,-0.18 -0.19,-0.395 -0.4061,-0.395 -0.09,0 -0.135,0.036 -0.26,0.108 -0.352,0.233 -0.649,0.233 -0.8471,0.233 -1.1881,0 -1.7011,-0.378 -1.7011,-0.8091 0,-0.198 0.054,-0.262 0.108,-0.324 0.477,0.224 0.9361,0.224 1.1341,0.224 0.288,0 0.7651,0 0.7651,-0.368 0,-0.495 -0.6751,-0.495 -0.9181,-0.495 -0.153,0 -0.6571,0 -1.0261,0.197 -0.2791,-0.216 -0.4411,-0.5211 -0.4411,-0.7641"
       style="fill:#000000;fill-opacity:1;fill-rule:nonzero;stroke:none"
       transform="matrix(1.3333333,0,0,-1.3333333,144.33301,756.86026)"
       clip-path="url(#clipPath480)" />
    <path
       id="path481"
       d="M 0,0 71.89,-0.45"
       style="fill:none;stroke:#000000;stroke-width:5;stroke-linecap:butt;stroke-linejoin:miter;stroke-miterlimit:3.864;stroke-dasharray:none;stroke-opacity:1"
       transform="matrix(0.13334667,0,0,-0.13334667,322.19888,395.42319)"
       clip-path="url(#clipPath482)" />
    <path
       id="path483"
       d="m 140.5892,271.0328 -1.1672,1.7502 4.6675,-1.7502 -4.6675,-1.7502 1.1672,1.7502"
       style="fill:#000000;fill-opacity:1;fill-rule:evenodd;stroke:none"
       transform="matrix(1.3333333,0,0,-1.3333333,144.33301,756.86026)"
       clip-path="url(#clipPath484)" />
    <path
       id="path485"
       d="m 0,0 c 0,36.87 55.33,66.77 123.61,66.77 68.26,0 123.6,-29.9 123.6,-66.77 0,-36.9 -55.34,-66.78 -123.6,-66.78 C 55.33,-66.78 0,-36.9 0,0 Z"
       style="fill:none;stroke:#000000;stroke-width:5;stroke-linecap:butt;stroke-linejoin:miter;stroke-miterlimit:3.864;stroke-dasharray:none;stroke-opacity:1"
       transform="matrix(0.13334667,0,0,-0.13334667,439.77594,395.04319)"
       clip-path="url(#clipPath486)" />
    <path
       id="path487"
       d="m 231.9093,264.0771 h 3.50075 v 3.12531 h -3.50075 z"
       style="fill:#ffffff;fill-opacity:1;fill-rule:nonzero;stroke:none"
       transform="matrix(1.3333333,0,0,-1.3333333,144.33301,756.86026)"
       clip-path="url(#clipPath488)" />
    <path
       id="path489"
       d="m 209.023,271.2258 c 0,7.1937 5.8315,13.0243 13.0243,13.0243 7.1937,0 13.0253,-5.8306 13.0253,-13.0243 0,-7.1937 -5.8316,-13.0243 -13.0253,-13.0243 -7.1928,0 -13.0243,5.8306 -13.0243,13.0243"
       style="fill:#f0f0f0;fill-opacity:1;fill-rule:nonzero;stroke:none"
       transform="matrix(1.3333333,0,0,-1.3333333,144.33301,756.86026)"
       clip-path="url(#clipPath490)" />
    <path
       id="path491"
       d="m 0,0 c 0,71.93 58.31,130.23 130.23,130.23 71.93,0 130.24,-58.3 130.24,-130.23 0,-71.93 -58.31,-130.23 -130.24,-130.23 C 58.31,-130.23 0,-71.93 0,0 Z"
       style="fill:none;stroke:#000000;stroke-width:5;stroke-linecap:butt;stroke-linejoin:miter;stroke-miterlimit:3.864;stroke-dasharray:none;stroke-opacity:1"
       transform="matrix(0.13334667,0,0,-0.13334667,423.03034,395.22586)"
       clip-path="url(#clipPath492)" />
    <path
       id="path493"
       d="m 222.7033,268.7176 c 0,-0.4051 0.035,-0.5411 1.0271,-0.5411 h 0.3501 v -0.327 c -0.3051,0.023 -1.3882,0.023 -1.7602,0.023 -0.373,0 -1.4662,0 -1.7712,-0.023 v 0.327 h 0.35 c 0.9921,0 1.0261,0.136 1.0261,0.5411 v 5.8775 c -0.62,-0.293 -1.1841,-0.293 -1.4441,-0.293 v 0.3271 c 1.1631,0 1.7262,0.417 1.9972,0.722 0.225,0 0.225,-0.011 0.225,-0.27 v -6.3636"
       style="fill:#000000;fill-opacity:1;fill-rule:nonzero;stroke:none"
       transform="matrix(1.3333333,0,0,-1.3333333,144.33301,756.86026)"
       clip-path="url(#clipPath494)" />
    <path
       id="path495"
       d="m 237.1598,264.9522 1.1971,-1.7312 -4.6975,1.6682 4.6365,1.8322 -1.1361,-1.7692"
       style="fill:#000000;fill-opacity:1;fill-rule:evenodd;stroke:none"
       transform="matrix(1.3333333,0,0,-1.3333333,144.33301,756.86026)"
       clip-path="url(#clipPath496)" />
    <path
       style="fill:#ff0000;stroke:#000000;stroke-width:1.19176;stroke-dasharray:none;stroke-opacity:1"
       d="M 314.75471,553.12983 V 380.63429"
       id="path1332-1" />
    <path
       style="fill:#ff0000;stroke:#000000;stroke-width:1.19176;stroke-dasharray:none;stroke-opacity:1"
       d="M 144.89915,553.12983 V 380.63429"
       id="path1332-1-8" />
    <path
       style="fill:#ff0000;stroke:#000000;stroke-width:1.19176;stroke-dasharray:none;stroke-opacity:1"
       d="M 480.1053,553.12983 V 380.63429"
       id="path1332-1-8-3" />
  </g>
</svg>
